<svg width="133" height="66" viewBox="0 0 133 66" fill="none" xmlns="http://www.w3.org/2000/svg">
<g clip-path="url(#clip0_967_3755)">
<path d="M16.6494 45.2583C15.62 45.4261 14.6485 45.6671 13.6659 45.7301C8.66323 46.0545 3.53073 43.5332 1.28656 38.9691C-0.113451 36.1242 -0.35934 33.1362 0.492614 30.0997C1.44413 26.7073 3.47878 24.1314 6.7143 22.534C7.37231 22.2096 7.37491 22.2147 7.27015 21.4832C6.23724 14.2607 10.9576 7.64867 18.2399 6.24708C22.6114 5.40578 26.5231 6.49742 29.9378 9.30912C29.9924 9.35425 30.0469 9.40024 30.1032 9.44451C30.1127 9.45218 30.13 9.44962 30.1872 9.45729C30.685 8.88762 31.1863 8.28901 31.7119 7.71339C34.2019 4.99024 37.0617 2.74821 40.5492 1.38834C46.3102 -0.858806 51.8748 -0.355561 57.1874 2.73458C60.3259 4.56023 62.7588 7.08923 64.4082 10.2926C67.4099 16.1229 66.6463 22.3986 62.2125 27.3467C61.822 27.7827 61.4246 28.2161 60.9891 28.6078C60.2783 29.2473 59.5346 29.8519 58.7328 30.4096C59.0913 29.8306 59.4601 29.2584 59.8056 28.6726C61.0575 26.548 62.0341 24.3162 62.4653 21.8826C63.222 17.6088 62.1908 13.8315 59.132 10.6622C57.2878 8.75138 55.022 7.469 52.4878 6.65921C48.8011 5.47986 45.0721 5.35554 41.3275 6.38332C37.2123 7.51328 33.9855 9.84813 31.6478 13.3666C31.3889 13.7557 31.1577 14.1628 30.8885 14.603C29.027 12.0289 26.5517 10.4365 23.4218 9.89752C20.923 9.46751 18.5481 9.89582 16.2962 11.0334C12.1204 13.1435 8.83899 18.6179 10.9403 24.6066C10.4996 24.7633 10.0503 24.9038 9.61562 25.08C6.83724 26.2083 4.97922 28.1352 4.44415 31.0994C3.96796 33.7382 4.6329 36.1727 6.12728 38.3824C7.92383 41.0391 10.4165 42.6408 13.6849 42.8894C16.0243 43.0674 18.2165 42.5216 20.1542 41.1787C20.9863 40.6023 21.62 39.841 21.9707 38.8771C21.756 40.4422 21.1118 41.8046 20.0555 42.9865C19.9378 43.1176 19.8607 43.3637 19.8927 43.5332C20.8373 48.4796 21.7984 53.4227 22.756 58.3657C22.9144 59.184 23.072 60.0015 23.2425 60.8845C34.7179 54.4138 47.0366 51.6694 60.1449 52.3276C57.8558 52.5788 55.5363 52.7576 53.2427 53.1076C50.9388 53.4593 48.6401 53.8961 46.3786 54.4513C44.1033 55.0099 41.8479 55.6792 39.6375 56.4489C37.4262 57.2187 35.2452 58.0958 33.1188 59.069C31.0045 60.0355 28.9352 61.1135 26.9188 62.2656C24.8893 63.4245 22.949 64.7333 20.93 66.0012C19.5066 59.1014 18.0737 52.1565 16.6503 45.2583H16.6494Z" fill="#FF852D"/>
<path d="M90.6342 39.6938C90.2082 40.8893 89.8247 42.0218 90.2308 43.2335C90.6403 44.4537 91.6161 45.0098 92.8169 45.2201C95.2317 45.6442 97.307 44.8846 99.1451 43.3749C100.296 42.4297 101.21 41.2844 102.021 40.0523C102.271 39.6725 102.556 39.314 102.85 38.9657C102.939 38.8601 103.113 38.8227 103.249 38.7546C103.304 38.9044 103.414 39.0569 103.408 39.2042C103.314 41.3628 102.656 43.3246 101.227 44.9928C99.3434 47.1905 96.8819 48.3528 94.036 48.7897C92.0593 49.0928 90.1009 49.0724 88.1918 48.3843C86.9762 47.9458 85.9364 47.2646 85.1017 46.1959C84.7104 46.5928 84.3571 46.9802 83.9727 47.3361C81.5727 49.5603 79.0082 48.9148 77.0826 47.1164C75.6073 45.7387 74.7077 43.9956 73.9692 42.164C73.7415 41.5995 73.5458 41.023 73.2939 40.3409C72.9778 41.2929 72.667 42.1478 72.4116 43.0189C71.9319 44.6521 71.4956 46.2973 71.0176 47.9305C70.8003 48.6721 70.5718 48.8101 69.8029 48.8109C69.7163 48.8109 69.6289 48.8186 69.5432 48.8092C68.4748 48.6858 67.2999 48.3375 66.7198 47.2663C66.2072 47.5967 65.7042 47.9433 65.1795 48.2549C64.2427 48.8118 63.2747 48.8075 62.2817 48.3835C61.2626 47.9475 60.2444 47.5149 59.4401 46.7349C58.8236 47.1701 58.2522 47.6554 57.6063 48.0122C56.1613 48.8109 54.6366 49.0196 53.0937 48.2847C51.8877 47.7108 51.2972 46.6404 50.9396 45.4364C50.3413 43.4192 50.7006 41.4752 51.4894 39.5822C52.9024 36.1907 55.5916 34.147 58.9552 32.8621C61.2392 31.9901 63.6072 31.6589 66.0419 32.117C66.5302 32.209 67.0168 32.3835 67.4635 32.6007C68.4358 33.0724 68.602 33.7085 68.093 34.6477C66.6367 37.3317 65.5475 40.1689 64.5492 43.0385C64.3475 43.6176 64.3189 44.2596 64.2496 44.8761C64.2323 45.0311 64.3241 45.2967 64.4375 45.3427C64.5838 45.4023 64.8583 45.3538 64.9778 45.2457C65.5267 44.7475 66.0401 44.2111 66.5683 43.6899C67.0583 43.2063 67.3258 42.6119 67.5432 41.9682C68.8704 38.0359 70.5276 34.2322 72.2938 30.4744C72.9216 29.1384 73.583 27.8109 74.3328 26.5387C75.3467 24.8195 76.8402 23.7006 78.9103 23.4776C80.6125 23.2936 82.2151 23.5882 83.6515 24.5471C84.9892 25.4411 85.2333 26.7227 84.3147 28.0383C83.4264 29.3096 82.2143 30.2513 80.9554 31.1335C79.4013 32.2226 77.7718 33.1942 75.9683 33.8311C75.3424 34.0525 75.351 34.5711 75.112 35.1263C75.6878 34.864 76.1562 34.6383 76.6341 34.4357C78.1441 33.7945 79.6671 33.1771 81.3026 32.9217C82.5078 32.7335 83.6705 32.8144 84.5961 33.7528C85.5372 34.7073 85.8394 36.6828 84.4558 37.6255C84.2342 37.7762 83.9814 37.9022 83.7242 37.978C83.0151 38.1866 82.9294 38.1491 82.5952 37.5028C82.2801 36.8923 81.764 36.5679 81.1043 36.4614C79.3623 36.1796 77.6844 36.441 76.0783 37.1273C75.3579 37.4347 75.2445 37.7285 75.6463 38.3952C76.1138 39.1718 76.6489 39.9169 77.2238 40.6202C78.1891 41.803 79.3372 42.7907 80.7493 43.4404C81.7519 43.902 82.771 44.1165 83.8125 43.5256C84.1043 43.3596 84.2602 43.1594 84.2974 42.7984C84.4463 41.3389 85.0463 40.0344 85.8853 38.8457C88.2862 35.443 91.4334 33.0349 95.5624 31.9944C96.9053 31.6555 98.2741 31.6035 99.6282 31.9578C101.498 32.4474 102.353 33.7545 101.781 35.5614C100.786 38.7018 98.6802 40.8442 95.391 41.6676C93.7555 42.0772 92.281 41.5918 91.094 40.3827C90.9208 40.2064 90.816 39.9671 90.636 39.6904L90.6342 39.6938ZM55.8366 42.3079C55.8227 43.9488 56.5855 44.4708 57.8704 43.8372C58.5371 43.5086 59.1596 43.0283 59.686 42.5038C60.7146 41.4777 61.4453 40.2285 62.0877 38.9419C62.5812 37.9533 63.0644 36.9519 63.4375 35.9165C63.7483 35.0547 63.4185 34.6997 62.4851 34.7209C60.7968 34.7584 59.447 35.5018 58.3457 36.716C56.8375 38.379 56.0392 40.3426 55.8366 42.3088V42.3079ZM91.4515 38.1066C91.7563 38.219 91.9979 38.3637 92.2533 38.3918C92.8663 38.4599 93.4879 38.5281 94.1009 38.4983C95.2472 38.4421 96.3624 38.2343 97.2871 37.4807C97.8628 37.0115 98.1087 36.2128 97.8758 35.5673C97.6602 34.9704 97.0247 34.5447 96.2741 34.5557C95.9061 34.5609 95.5156 34.5983 95.1754 34.7252C93.5078 35.3485 92.4308 36.613 91.4515 38.1074V38.1066ZM76.1848 32.0778C76.4341 31.9654 76.5631 31.9186 76.6809 31.8522C78.1623 31.0109 79.5034 29.9882 80.6246 28.7186C81.1078 28.1719 81.5433 27.5512 81.8532 26.8972C82.2073 26.1496 81.8515 25.7903 81.0255 25.9529C80.0506 26.1445 79.3969 26.7976 78.887 27.5606C78.1614 28.6471 77.5155 29.7839 76.8419 30.9036C76.6333 31.2502 76.4463 31.6095 76.1848 32.0787V32.0778Z" fill="#FF852D"/>
<path d="M43.2652 34.5203C44.0704 34.7391 44.8739 34.9086 45.6419 35.1742C49.3337 36.4541 51.17 40.5703 49.5778 44.0163C48.8202 45.6555 47.4791 46.7701 45.931 47.6532C43.4219 49.0854 40.673 49.8092 37.8297 50.2171C34.9717 50.6275 32.1128 50.6479 29.2695 50.0808C28.0201 49.8313 26.8132 49.4609 25.7474 48.7346C23.608 47.2768 23.7612 43.9627 26.0296 42.6837C26.8894 42.1992 27.5985 42.3457 28.1682 43.1444C28.4409 43.5276 28.6703 43.9397 28.9405 44.3246C29.3171 44.8619 29.6703 45.1276 30.1803 45.2894C30.4028 44.4268 30.6175 43.5642 30.8478 42.705C31.9033 38.7625 33.4236 35.0073 35.5535 31.5025C36.2435 30.3674 36.9864 29.2656 38.157 28.5358C39.563 27.6596 41.0237 27.6826 42.4886 28.3493C42.7934 28.4881 43.028 28.7955 43.2592 29.0561C43.3111 29.1157 43.254 29.3797 43.1752 29.4231C42.2609 29.928 41.6011 30.7038 40.9275 31.4582C40.4669 31.9742 40.0609 32.5371 39.6306 33.0786C39.6583 33.1195 39.6851 33.1604 39.7128 33.2021C40.1405 33.1238 40.5682 33.0454 40.9959 32.9671C42.4401 32.7048 43.7128 32.1309 44.6895 31.012C45.583 29.9877 45.97 28.8015 45.8107 27.4638C45.6384 26.0222 44.5042 24.9722 42.7163 24.5346C40.6488 24.0288 38.5674 24.1216 36.4929 24.4451C32.679 25.0412 29.2019 26.4445 26.1456 28.787C24.0608 30.3853 22.4867 32.3872 21.4305 34.7757C21.1101 35.4995 20.6313 35.6477 20.0019 35.1606C18.8824 34.2946 18.1222 33.1544 17.7257 31.8244C17.4962 31.0529 17.8781 30.3206 18.2512 29.6419C19.0772 28.1407 20.2919 26.9724 21.6495 25.9506C25.6036 22.9729 30.1309 21.5057 35.0539 21.1106C38.2089 20.8577 41.3345 20.9974 44.3916 21.8753C45.9267 22.3164 47.3847 22.9346 48.5657 24.0313C51.2809 26.5509 50.9908 30.6603 47.9605 32.8351C46.6479 33.7769 45.1631 34.2776 43.5657 34.4871C43.4704 34.4998 43.3752 34.5083 43.2678 34.5211L43.2652 34.5203ZM33.9041 46.1034C34.1691 46.117 34.2955 46.1264 34.4227 46.129C36.0886 46.1647 37.6912 45.8139 39.2488 45.2826C41.0583 44.6661 42.7587 43.8546 44.1172 42.4623C45.7942 40.7448 45.5492 38.6305 43.4687 37.4307C41.7674 36.4498 39.9189 36.3374 38.0262 36.7206C37.8288 36.7606 37.6202 36.9845 37.5128 37.1753C36.3388 39.2496 35.4331 41.4414 34.6461 43.68C34.3751 44.4506 34.1656 45.2425 33.9041 46.1017V46.1034Z" fill="#FF852D"/>
<path d="M109.552 36.9509C109.397 37.042 109.237 37.1271 109.088 37.2259C108.029 37.9259 106.939 38.5662 105.66 38.7842C105.211 38.8608 104.741 38.8974 104.29 38.854C103.317 38.7603 102.652 38.1728 102.434 37.22C102.025 35.436 102.585 33.8854 103.726 32.5162C104.626 31.4348 105.805 30.8523 107.243 30.9239C108.248 30.9732 109.017 31.4629 109.481 32.3629C109.693 32.7733 109.656 33.1855 109.434 33.5848C109.031 34.3103 107.758 34.9396 106.921 34.8229C106.842 34.8119 106.767 34.7642 106.67 34.725C106.84 34.3648 107.174 34.0779 106.956 33.6206C106.672 33.0254 106.147 32.9096 105.701 33.4069C105.381 33.7637 105.208 34.1911 105.379 34.6637C105.548 35.1278 105.967 35.2461 106.422 35.2828C107.298 35.3534 108.11 35.1005 108.894 34.771C109.966 34.3197 111.01 33.7986 112.088 33.3592C112.586 33.1557 113.128 33.0211 113.663 32.9522C114.315 32.8679 114.737 33.1846 114.919 33.8071C115.133 34.5377 115.115 35.2904 114.824 35.981C114.163 37.5503 113.45 39.0984 112.737 40.6456C112.16 41.899 111.565 43.1431 111.32 44.5123C111.277 44.7482 111.254 44.9917 111.257 45.231C111.264 45.7547 111.556 45.9182 112.024 45.6465C112.269 45.5043 112.498 45.3221 112.698 45.122C113.941 43.8771 114.812 42.3657 115.808 40.9419C116.344 40.1764 116.587 39.3053 116.903 38.4564C117.498 36.8564 118.171 35.2964 119.085 33.8386C120.096 32.2267 121.697 31.8801 123.279 32.431C123.877 32.6388 124.459 32.9615 124.965 33.3388C125.483 33.7262 125.446 34.1298 124.994 34.605C124.378 35.2547 123.674 35.8431 123.155 36.5617C121.709 38.5636 120.659 40.7682 119.984 43.1371C119.883 43.4905 119.823 43.8575 119.771 44.222C119.657 45.0292 120.164 45.4311 120.96 45.1774C121.708 44.9389 122.296 44.4595 122.85 43.9376C124.43 42.4525 125.575 40.6626 126.409 38.7024C127.163 36.9279 127.765 35.0912 128.433 33.2809C128.497 33.108 128.55 32.93 128.621 32.7606C128.81 32.3084 129.123 32.0359 129.654 32.1075C130.251 32.1875 130.867 32.2105 131.441 32.3723C132.618 32.7027 133.139 33.5959 132.963 34.788C132.734 36.3455 132.161 37.8015 131.601 39.2593C129.857 43.8081 128.097 48.351 126.333 52.8921C125.677 54.5781 124.94 56.2223 123.748 57.6307C121.631 60.135 118.596 60.4901 115.855 59.2052C114.698 58.6628 114.154 57.6708 113.896 56.5016C113.385 54.1813 114.441 51.8703 116.497 50.6168C117.842 49.7968 119.35 50.3827 120.122 51.1899C120.734 51.8311 120.68 52.6068 119.956 53.1467C119.396 53.5639 118.766 53.8892 118.173 54.2664C117.883 54.4512 117.588 54.6368 117.337 54.865C117.13 55.0532 116.946 55.2865 116.818 55.5326C116.563 56.0239 116.657 56.5723 117.002 56.9129C117.326 57.2322 117.852 57.2833 118.372 57.0372C119.046 56.7171 119.502 56.167 119.909 55.576C120.892 54.1438 121.563 52.5608 122.186 50.9566C122.923 49.0628 123.657 47.1682 124.391 45.2744C124.43 45.1748 124.463 45.0726 124.522 44.9066C123.993 45.5656 123.537 46.1864 123.025 46.7578C122.135 47.7532 121.099 48.5826 119.754 48.8755C118.313 49.1888 116.905 49.0867 115.846 47.9167C115.45 47.4781 115.23 46.8846 114.911 46.3312C114.795 46.4589 114.625 46.653 114.447 46.8404C113.513 47.8247 112.527 48.752 111.119 49.0109C109.851 49.2433 108.618 49.0688 107.473 48.4659C106.381 47.8903 105.846 46.7816 106.221 45.5333C106.661 44.0704 107.219 42.6381 107.802 41.2229C108.321 39.9635 108.946 38.7467 109.515 37.5078C109.586 37.3553 109.606 37.1799 109.65 37.0156C109.616 36.9952 109.581 36.9739 109.547 36.9534L109.552 36.9509Z" fill="#FF852D"/>
</g>
<defs>
<clipPath id="clip0_967_3755">
<rect width="133" height="66" fill="white"/>
</clipPath>
</defs>
</svg>
