<svg xmlns="http://www.w3.org/2000/svg" width="48" height="47" fill="none"><path stroke="#fff" stroke-linecap="round" stroke-linejoin="round" stroke-width="1.5" d="M16.51 7.834h15.666c1.081 0 1.958.877 1.958 1.958v11.75c0 5.408-4.384 9.792-9.792 9.792v0c-5.407 0-9.791-4.384-9.791-9.792V9.792c0-1.081.877-1.958 1.958-1.958Z" clip-rule="evenodd"/><path stroke="#fff" stroke-linecap="round" stroke-linejoin="round" stroke-width="1.5" d="m33.494 25.028 3.705-1.853a6.854 6.854 0 0 0 3.79-6.13v-2.619c0-.946-.768-1.713-1.714-1.713h-5.14M24.342 39.167v-7.833M32.175 39.167H16.508M15.19 25.028l-3.706-1.853a6.854 6.854 0 0 1-3.789-6.13v-2.619c0-.946.767-1.713 1.714-1.713h5.14"/></svg>