<svg xmlns="http://www.w3.org/2000/svg" width="47" height="47" fill="none">
<path stroke="#fff" stroke-linecap="round" stroke-linejoin="round" 
stroke-width="1.5" d="m33.296 24.38 5.278-5.277c.79-.79.79-2.07 0-2.86l-7.818-7.817c-.789-.79-2.07-.79-2.859 0l-5.278 5.278-8.47 2.874a4.045 4.045 0 0 0-2.674 3.087l-3.641 19.5 19.501-3.64a4.041 4.041 0 0 0 3.086-2.675l2.875-8.47v0Z" 
clip-rule="evenodd"/><path stroke="#fff" stroke-linecap="round" 
stroke-linejoin="round" stroke-width="1.5" d="M33.292 24.38 22.62 13.707M7.834 39.166l10.164-10.164M23.068 23.931a3.594 3.594 0 1 1-5.082 5.082 3.594 3.594 0 0 1 5.082-5.082"/></svg>