<svg aria-hidden="true" style="position: absolute; width: 0; height: 0; overflow: hidden;" version="1.1" xmlns="http://www.w3.org/2000/svg" xmlns:xlink="http://www.w3.org/1999/xlink">
<defs>
<symbol id="icon-statistics2" viewBox="0 0 33 32">
<path fill="none" stroke="#fff" style="stroke: var(--color1, #fff)" stroke-linejoin="round" stroke-linecap="round" stroke-miterlimit="4" stroke-width="1.0213" d="M21.906 8.483v3.517c0 2.945-2.388 5.333-5.333 5.333v0c-2.945 0-5.333-2.388-5.333-5.333v-3.517"></path>
<path fill="none" stroke="#fff" style="stroke: var(--color1, #fff)" stroke-linejoin="round" stroke-linecap="round" stroke-miterlimit="4" stroke-width="1.0213" d="M8.647 7.194l6.147 3.055c1.121 0.557 2.439 0.557 3.56 0l6.147-3.055c0.453-0.225 0.74-0.688 0.74-1.194s-0.287-0.969-0.74-1.194l-6.147-3.055c-1.121-0.557-2.439-0.557-3.56 0l-6.147 3.055c-0.453 0.225-0.74 0.688-0.74 1.194s0.287 0.969 0.74 1.194v0z"></path>
<path fill="none" stroke="#fff" style="stroke: var(--color1, #fff)" stroke-linejoin="round" stroke-linecap="round" stroke-miterlimit="4" stroke-width="1.0213" d="M25.24 6v4"></path>
<path fill="none" stroke="#fff" style="stroke: var(--color1, #fff)" stroke-linejoin="round" stroke-linecap="round" stroke-miterlimit="4" stroke-width="1.0213" d="M12.573 20.666l-4.784 0.956c-1.87 0.374-3.216 2.016-3.216 3.922v2.454"></path>
<path fill="none" stroke="#fff" style="stroke: var(--color1, #fff)" stroke-linejoin="round" stroke-linecap="round" stroke-miterlimit="4" stroke-width="1.0213" d="M24.574 22.334v3.333"></path>
<path fill="none" stroke="#fff" style="stroke: var(--color1, #fff)" stroke-linejoin="round" stroke-linecap="round" stroke-miterlimit="4" stroke-width="1.0213" d="M26.24 24h-3.333"></path>
<path fill="none" stroke="#fff" style="stroke: var(--color1, #fff)" stroke-linejoin="round" stroke-linecap="round" stroke-miterlimit="4" stroke-width="1.0213" d="M29.906 24c0 2.946-2.388 5.333-5.333 5.333s-5.333-2.388-5.333-5.333c0-2.946 2.388-5.333 5.333-5.333s5.333 2.388 5.333 5.333z"></path>
</symbol>
<symbol id="icon-statistics1" viewBox="0 0 32 32">
<path fill="none" stroke="#fff" style="stroke: var(--color1, #fff)" stroke-linejoin="round" stroke-linecap="round" stroke-miterlimit="4" stroke-width="1.0213" d="M22.67 16.599l3.593-3.593c0.537-0.537 0.537-1.409 0-1.947l-5.323-5.323c-0.537-0.537-1.409-0.537-1.947 0l-3.593 3.593-5.767 1.957c-0.943 0.32-1.639 1.124-1.821 2.101l-2.479 13.277 13.277-2.479c0.979-0.183 1.781-0.879 2.101-1.821l1.957-5.767z"></path>
<path fill="none" stroke="#fff" style="stroke: var(--color1, #fff)" stroke-linejoin="round" stroke-linecap="round" stroke-miterlimit="4" stroke-width="1.0213" d="M22.667 16.599l-7.267-7.267"></path>
<path fill="none" stroke="#fff" style="stroke: var(--color1, #fff)" stroke-linejoin="round" stroke-linecap="round" stroke-miterlimit="4" stroke-width="1.0213" d="M5.334 26.666l6.92-6.92"></path>
<path fill="none" stroke="#fff" style="stroke: var(--color1, #fff)" stroke-linejoin="round" stroke-linecap="round" stroke-miterlimit="4" stroke-width="1.0213" d="M15.706 16.294c0.955 0.956 0.955 2.505 0 3.46s-2.505 0.955-3.46 0c-0.955-0.956-0.955-2.505 0-3.46s2.505-0.955 3.46 0"></path>
</symbol>
<symbol id="icon-statistics3" viewBox="0 0 33 32">
<path fill="none" stroke="#fff" style="stroke: var(--color1, #fff)" stroke-linejoin="round" stroke-linecap="round" stroke-miterlimit="4" stroke-width="1.0213" d="M23.542 20.21l-0.301 0.306-0.302-0.306c-0.549-0.561-1.3-0.877-2.084-0.877s-1.536 0.316-2.084 0.877v0c-1.151 1.176-1.151 3.057 0 4.233l2.82 2.863c0.434 0.444 1.029 0.694 1.65 0.694s1.216-0.25 1.65-0.694l2.82-2.863c1.151-1.176 1.151-3.057 0-4.233v0c-0.549-0.561-1.3-0.877-2.084-0.877s-1.536 0.316-2.084 0.877z"></path>
<path fill="none" stroke="#fff" style="stroke: var(--color1, #fff)" stroke-linejoin="round" stroke-linecap="round" stroke-miterlimit="4" stroke-width="1.0213" d="M13.906 20h-4c-2.946 0-5.333 2.388-5.333 5.333v1.333"></path>
<path fill="none" stroke="#fff" style="stroke: var(--color1, #fff)" stroke-linejoin="round" stroke-linecap="round" stroke-miterlimit="4" stroke-width="1.0213" d="M20.574 9.333c0 2.946-2.388 5.333-5.333 5.333s-5.333-2.388-5.333-5.333c0-2.946 2.388-5.333 5.333-5.333s5.333 2.388 5.333 5.333z"></path>
</symbol>
<symbol id="icon-statistics4" viewBox="0 0 33 32">
<path fill="none" stroke="#fff" style="stroke: var(--color1, #fff)" stroke-linejoin="round" stroke-linecap="round" stroke-miterlimit="4" stroke-width="1.0213" d="M11.24 5.334h10.667c0.736 0 1.333 0.597 1.333 1.333v8c0 3.682-2.985 6.667-6.667 6.667v0c-3.682 0-6.667-2.985-6.667-6.667v-8c0-0.736 0.597-1.333 1.333-1.333z"></path>
<path fill="none" stroke="#fff" style="stroke: var(--color1, #fff)" stroke-linejoin="round" stroke-linecap="round" stroke-miterlimit="4" stroke-width="1.0213" d="M22.805 17.040l2.523-1.261c1.581-0.791 2.58-2.406 2.58-4.174v-1.783c0-0.644-0.522-1.167-1.167-1.167h-3.5"></path>
<path fill="none" stroke="#fff" style="stroke: var(--color1, #fff)" stroke-linejoin="round" stroke-linecap="round" stroke-miterlimit="4" stroke-width="1.0213" d="M16.574 26.667v-5.333"></path>
<path fill="none" stroke="#fff" style="stroke: var(--color1, #fff)" stroke-linejoin="round" stroke-linecap="round" stroke-miterlimit="4" stroke-width="1.0213" d="M21.906 26.667h-10.667"></path>
<path fill="none" stroke="#fff" style="stroke: var(--color1, #fff)" stroke-linejoin="round" stroke-linecap="round" stroke-miterlimit="4" stroke-width="1.0213" d="M10.342 17.040l-2.523-1.261c-1.581-0.791-2.58-2.406-2.58-4.174v-1.783c0-0.644 0.522-1.167 1.167-1.167h3.5"></path>
</symbol>
</defs>
</svg>
