<svg width="120" height="60" viewBox="0 0 120 60" fill="none" xmlns="http://www.w3.org/2000/svg">
<g clip-path="url(#clip0_967_4489)">
<path d="M15.022 41.1439C14.0932 41.2964 13.2167 41.5155 12.3301 41.5728C7.81645 41.8677 3.18562 39.5756 1.1608 35.4264C-0.102362 32.8401 -0.324216 30.1238 0.444463 27.3634C1.30298 24.2793 3.13875 21.9377 6.05801 20.4854C6.65171 20.1905 6.65405 20.1952 6.55953 19.5302C5.62758 12.9643 9.88657 6.95334 16.4571 5.67916C20.4012 4.91435 23.9306 5.90675 27.0116 8.46284C27.0608 8.50387 27.11 8.54567 27.1608 8.58592C27.1694 8.59289 27.185 8.59057 27.2366 8.59753C27.6857 8.07966 28.138 7.53546 28.6122 7.01217C30.8589 4.53659 33.4391 2.49837 36.5857 1.26213C41.7837 -0.780733 46.8043 -0.323238 51.5976 2.48598C54.4294 4.14566 56.6245 6.44475 58.1126 9.35693C60.821 14.6572 60.132 20.3624 56.1316 24.8607C55.7793 25.257 55.4207 25.651 55.0278 26.0071C54.3864 26.5885 53.7154 27.1381 52.992 27.6451C53.3154 27.1187 53.6482 26.5985 53.9599 26.066C55.0895 24.1346 55.9706 22.1056 56.3597 19.8933C57.0424 16.008 56.112 12.5741 53.3521 9.69289C51.6882 7.9558 49.6439 6.79 47.3574 6.05383C44.0311 4.98169 40.6666 4.86868 37.288 5.80302C33.575 6.83025 30.6636 8.95285 28.5544 12.1514C28.3208 12.5052 28.1123 12.8752 27.8693 13.2754C26.1898 10.9353 23.9564 9.48775 21.1324 8.99775C18.8779 8.60682 16.7352 8.9962 14.7033 10.0304C10.9357 11.9486 7.97503 16.9253 9.87095 22.3696C9.47333 22.512 9.0679 22.6398 8.67574 22.8C6.16894 23.8257 4.49253 25.5775 4.00976 28.2722C3.58012 30.6711 4.18006 32.8843 5.52837 34.8931C7.14932 37.3083 9.39833 38.7644 12.3473 38.9904C14.458 39.1522 16.436 38.656 18.1843 37.4352C18.935 36.9112 19.5068 36.2191 19.8232 35.3428C19.6294 36.7656 19.0482 38.0042 18.0952 39.0786C17.989 39.1979 17.9194 39.4216 17.9483 39.5756C18.8006 44.0724 19.6677 48.5661 20.5317 53.0597C20.6747 53.8036 20.8168 54.5468 20.9707 55.3495C31.3245 49.4671 42.4391 46.9722 54.2661 47.5706C52.2007 47.7989 50.1079 47.9615 48.0386 48.2796C45.9598 48.5993 43.8858 48.9965 41.8454 49.5012C39.7924 50.009 37.7575 50.6174 35.7631 51.3172C33.768 52.017 31.8002 52.8143 29.8816 53.6991C27.974 54.5777 26.107 55.5578 24.2876 56.6051C22.4565 57.6587 20.7059 58.8485 18.8842 60.0011C17.5999 53.7285 16.3071 47.415 15.0228 41.1439H15.022Z" fill="#FF852D"/>
<path d="M81.7739 36.086C81.3896 37.1728 81.0435 38.2024 81.4099 39.3039C81.7794 40.4132 82.6598 40.9187 83.7433 41.1099C85.922 41.4954 87.7945 40.8049 89.4529 39.4324C90.4911 38.5732 91.316 37.532 92.048 36.4119C92.2729 36.0666 92.53 35.7407 92.7956 35.4241C92.876 35.3281 93.033 35.2941 93.1557 35.2321C93.2057 35.3684 93.3049 35.5069 93.2994 35.6409C93.2143 37.6032 92.6206 39.3867 91.3309 40.9032C89.6318 42.9012 87.4109 43.9578 84.8432 44.3549C83.0597 44.6305 81.2927 44.6119 79.5702 43.9865C78.4734 43.5878 77.5352 42.9685 76.7822 41.997C76.4291 42.3578 76.1104 42.71 75.7635 43.0335C73.5981 45.0555 71.2842 44.4687 69.5469 42.8338C68.2158 41.5813 67.4041 39.9967 66.7378 38.3316C66.5323 37.8184 66.3558 37.2943 66.1285 36.6743C65.8433 37.5397 65.5629 38.3169 65.3324 39.1088C64.8997 40.5936 64.506 42.0891 64.0747 43.5739C63.8787 44.2481 63.6724 44.3735 62.9787 44.3743C62.9006 44.3743 62.8217 44.3813 62.7444 44.3727C61.7804 44.2605 60.7204 43.9439 60.197 42.9701C59.7345 43.2704 59.2806 43.5855 58.8073 43.8688C57.962 44.3751 57.0887 44.3712 56.1926 43.9857C55.2732 43.5894 54.3545 43.1961 53.6288 42.487C53.0726 42.8826 52.557 43.3238 51.9743 43.6482C50.6705 44.3743 49.2948 44.5639 47.9028 43.8959C46.8146 43.3742 46.2818 42.4011 45.9592 41.3065C45.4194 39.4727 45.7436 37.7054 46.4553 35.9846C47.7301 32.9013 50.1565 31.0435 53.1914 29.8753C55.2521 29.0827 57.3886 28.7815 59.5853 29.198C60.0259 29.2816 60.4649 29.4403 60.868 29.6377C61.7453 30.0665 61.8952 30.6448 61.4359 31.4986C60.122 33.9386 59.1392 36.5179 58.2386 39.1266C58.0565 39.653 58.0308 40.2367 57.9683 40.7972C57.9526 40.9381 58.0354 41.1796 58.1378 41.2214C58.2698 41.2756 58.5174 41.2314 58.6252 41.1331C59.1205 40.6803 59.5837 40.1926 60.0603 39.7188C60.5024 39.2791 60.7438 38.7388 60.9399 38.1536C62.1374 34.5788 63.6326 31.1209 65.2262 27.7047C65.7926 26.4902 66.3894 25.2834 67.0659 24.1268C67.9806 22.5639 69.3282 21.5468 71.196 21.3439C72.7318 21.1767 74.1777 21.4446 75.4737 22.3162C76.6806 23.129 76.9009 24.294 76.0721 25.49C75.2706 26.6458 74.1769 27.5019 73.0411 28.3039C71.6389 29.294 70.1687 30.1772 68.5415 30.7563C67.9767 30.9575 67.9845 31.429 67.7689 31.9337C68.2884 31.6953 68.711 31.4901 69.1422 31.3059C70.5046 30.723 71.8787 30.1618 73.3544 29.9295C74.4418 29.7584 75.4909 29.832 76.326 30.685C77.1751 31.5528 77.4477 33.3487 76.1994 34.2057C75.9994 34.3427 75.7713 34.4573 75.5393 34.5261C74.8995 34.7158 74.8222 34.6817 74.5207 34.0942C74.2363 33.5392 73.7707 33.2442 73.1755 33.1475C71.6037 32.8912 70.0898 33.1289 68.6407 33.7528C67.9908 34.0323 67.8885 34.2993 68.2509 34.9055C68.6728 35.6114 69.1555 36.2888 69.6742 36.9282C70.5452 38.0034 71.5811 38.9014 72.8552 39.492C73.7598 39.9116 74.6792 40.1067 75.619 39.5694C75.8823 39.4185 76.0229 39.2366 76.0565 38.9083C76.1908 37.5815 76.7322 36.3956 77.4891 35.315C79.6553 32.2216 82.4949 30.0325 86.2204 29.0865C87.432 28.7784 88.667 28.7312 89.8888 29.0532C91.5761 29.4983 92.3472 30.6866 91.8308 32.3292C90.9332 35.1841 89.0334 37.1318 86.0657 37.8803C84.5901 38.2527 83.2597 37.8114 82.1887 36.7122C82.0325 36.552 81.938 36.3345 81.7755 36.0829L81.7739 36.086ZM50.3775 38.4625C50.365 39.9542 51.0533 40.4287 52.2125 39.8528C52.814 39.554 53.3757 39.1174 53.8507 38.6405C54.7787 37.7077 55.438 36.5721 56.0177 35.4024C56.4629 34.5037 56.8988 33.5934 57.2355 32.652C57.516 31.8687 57.2183 31.5459 56.3762 31.5652C54.8529 31.5993 53.6351 32.2751 52.6414 33.3789C51.2806 34.8908 50.5603 36.6758 50.3775 38.4632V38.4625ZM82.5113 34.643C82.7863 34.7452 83.0043 34.8768 83.2347 34.9024C83.7878 34.9643 84.3487 35.0262 84.9017 34.9991C85.936 34.948 86.9422 34.7592 87.7765 34.0741C88.296 33.6475 88.5178 32.9214 88.3077 32.3347C88.1132 31.792 87.5398 31.405 86.8625 31.415C86.5305 31.4197 86.1782 31.4537 85.8712 31.5691C84.3666 32.1357 83.3949 33.2853 82.5113 34.6438V34.643ZM68.7368 29.1624C68.9618 29.0602 69.0782 29.0176 69.1844 28.9572C70.521 28.1924 71.7311 27.2627 72.7427 26.1085C73.1786 25.6116 73.5715 25.0473 73.8512 24.4527C74.1707 23.7731 73.8496 23.4464 73.1044 23.5943C72.2248 23.7684 71.635 24.3622 71.1749 25.0558C70.5202 26.0435 69.9375 27.0769 69.3297 28.0949C69.1415 28.41 68.9727 28.7366 68.7368 29.1632V29.1624Z" fill="#FF852D"/>
<path d="M39.0355 31.3808C39.762 31.5798 40.487 31.7338 41.1799 31.9753C44.5108 33.1388 46.1677 36.8808 44.7311 40.0136C44.0476 41.5038 42.8375 42.5171 41.4408 43.3198C39.1769 44.6219 36.6967 45.2798 34.1313 45.6506C31.5526 46.0238 28.9732 46.0423 26.4078 45.5268C25.2805 45.3 24.1916 44.9632 23.2299 44.3029C21.2996 42.9777 21.4379 39.9649 23.4846 38.8021C24.2603 38.3617 24.9001 38.4948 25.4141 39.2209C25.6602 39.5693 25.8672 39.944 26.1109 40.2938C26.4507 40.7823 26.7695 41.0238 27.2296 41.1709C27.4303 40.3867 27.6241 39.6026 27.8319 38.8215C28.7841 35.2374 30.1559 31.8236 32.0776 28.6374C32.7002 27.6055 33.3704 26.6038 34.4266 25.9404C35.6952 25.1439 37.0131 25.1648 38.3348 25.7709C38.6098 25.8971 38.8215 26.1765 39.0301 26.4134C39.0769 26.4676 39.0254 26.7076 38.9543 26.747C38.1294 27.2061 37.5341 27.9113 36.9263 28.5971C36.5108 29.0662 36.1444 29.5779 35.7561 30.0703C35.7811 30.1074 35.8054 30.1446 35.8304 30.1825C36.2163 30.1113 36.6022 30.0401 36.9881 29.9688C38.2911 29.7304 39.4394 29.2087 40.3206 28.1915C41.1267 27.2603 41.4759 26.1819 41.3322 24.9658C41.1767 23.6553 40.1534 22.7008 38.5403 22.3029C36.6748 21.8431 34.7969 21.9275 32.9252 22.2216C29.4841 22.7635 26.3468 24.0392 23.5893 26.1688C21.7082 27.6218 20.288 29.4417 19.335 31.613C19.0459 32.271 18.614 32.4057 18.046 31.9629C17.036 31.1757 16.3501 30.1392 15.9923 28.93C15.7853 28.2287 16.1298 27.5629 16.4665 26.946C17.2117 25.5812 18.3077 24.5192 19.5326 23.5902C23.1003 20.8832 27.1851 19.5494 31.6268 19.1902C34.4734 18.9603 37.2935 19.0873 40.0518 19.8854C41.4369 20.2864 42.7524 20.8484 43.8179 21.8454C46.2677 24.136 46.006 27.8718 43.2719 29.8489C42.0876 30.705 40.7479 31.1602 39.3066 31.3506C39.2207 31.3622 39.1347 31.37 39.0379 31.3816L39.0355 31.3808ZM30.5894 41.9109C30.8285 41.9233 30.9425 41.9318 31.0574 41.9342C32.5603 41.9667 34.0063 41.6478 35.4116 41.1647C37.0443 40.6043 38.5785 39.8665 39.8042 38.6009C41.3174 37.0395 41.0963 35.1174 39.2191 34.0267C37.6841 33.1349 36.0163 33.0328 34.3086 33.3811C34.1305 33.4175 33.9422 33.6211 33.8454 33.7945C32.7861 35.6802 31.969 37.6727 31.2589 39.7079C31.0144 40.4084 30.8253 41.1283 30.5894 41.9094V41.9109Z" fill="#FF852D"/>
<path d="M98.845 33.5899C98.7051 33.6728 98.5614 33.7502 98.4263 33.84C97.4709 34.4763 96.4874 35.0584 95.3336 35.2566C94.9289 35.3262 94.5047 35.3595 94.0977 35.3201C93.2197 35.2349 92.6198 34.7008 92.4229 33.8345C92.0542 32.2128 92.5596 30.8032 93.5884 29.5584C94.4008 28.5753 95.4648 28.0458 96.7616 28.1108C97.6685 28.1557 98.3622 28.6008 98.7809 29.4191C98.9723 29.7922 98.9387 30.1668 98.7387 30.5299C98.3747 31.1894 97.2264 31.7615 96.4717 31.6554C96.3999 31.6454 96.3327 31.602 96.2452 31.5664C96.3983 31.239 96.6999 30.9781 96.503 30.5624C96.2468 30.0213 95.7726 29.916 95.3703 30.3681C95.082 30.6925 94.9258 31.0811 95.0805 31.5107C95.2328 31.9326 95.6109 32.0402 96.021 32.0735C96.8116 32.1377 97.5443 31.9078 98.2513 31.6082C99.2192 31.198 100.16 30.7242 101.133 30.3248C101.582 30.1398 102.072 30.0174 102.555 29.9547C103.142 29.8781 103.523 30.1661 103.688 30.7319C103.88 31.3961 103.864 32.0804 103.602 32.7082C103.006 34.1349 102.363 35.5422 101.719 36.9488C101.198 38.0882 100.661 39.2192 100.44 40.464C100.402 40.6784 100.381 40.8998 100.384 41.1173C100.39 41.5934 100.653 41.742 101.075 41.4951C101.296 41.3658 101.503 41.2001 101.684 41.0182C102.805 39.8865 103.591 38.5125 104.49 37.2182C104.973 36.5222 105.193 35.7303 105.478 34.9585C106.015 33.504 106.622 32.0858 107.447 30.7606C108.358 29.2952 109.803 28.9801 111.231 29.481C111.77 29.6699 112.295 29.9633 112.752 30.3062C113.219 30.6584 113.186 31.0253 112.778 31.4573C112.222 32.0479 111.587 32.5828 111.119 33.2362C109.814 35.0561 108.867 37.0602 108.257 39.2138C108.167 39.535 108.112 39.8687 108.065 40.2C107.962 40.9339 108.42 41.2992 109.138 41.0685C109.813 40.8518 110.343 40.416 110.843 39.9415C112.269 38.5914 113.302 36.9642 114.055 35.1823C114.735 33.569 115.278 31.8993 115.881 30.2535C115.939 30.0964 115.986 29.9346 116.05 29.7806C116.221 29.3695 116.504 29.1218 116.982 29.1868C117.521 29.2596 118.077 29.2805 118.595 29.4276C119.656 29.7279 120.127 30.54 119.968 31.6237C119.761 33.0395 119.244 34.3633 118.739 35.6885C117.165 39.8238 115.578 43.9536 113.986 48.0819C113.394 49.6147 112.729 51.1094 111.654 52.3898C109.743 54.6665 107.005 54.9893 104.532 53.8211C103.488 53.328 102.997 52.4262 102.765 51.3634C102.303 49.2539 103.256 47.153 105.112 46.0135C106.325 45.2681 107.686 45.8006 108.382 46.5345C108.934 47.1174 108.885 47.8226 108.232 48.3134C107.727 48.6927 107.158 48.9884 106.624 49.3313C106.362 49.4993 106.096 49.6681 105.869 49.8755C105.683 50.0466 105.516 50.2587 105.401 50.4824C105.171 50.9291 105.255 51.4276 105.567 51.7372C105.859 52.0275 106.334 52.074 106.803 51.8503C107.411 51.5592 107.823 51.0591 108.189 50.5219C109.077 49.2199 109.682 47.7808 110.245 46.3224C110.909 44.6008 111.571 42.8784 112.234 41.1568C112.269 41.0662 112.298 40.9733 112.352 40.8224C111.874 41.4215 111.463 41.9859 111.002 42.5053C110.199 43.4102 109.264 44.1642 108.05 44.4305C106.75 44.7153 105.48 44.6225 104.524 43.5588C104.166 43.1602 103.968 42.6206 103.68 42.1175C103.576 42.2336 103.423 42.4101 103.262 42.5804C102.419 43.4752 101.529 44.3182 100.259 44.5536C99.1153 44.7649 98.0021 44.6062 96.9694 44.0581C95.9843 43.5348 95.5015 42.527 95.8398 41.3921C96.2366 40.0622 96.7405 38.7602 97.2662 37.4736C97.7341 36.3287 98.2981 35.2225 98.8122 34.0962C98.8754 33.9576 98.8942 33.7982 98.9332 33.6488C98.9028 33.6302 98.8715 33.6108 98.8411 33.5923L98.845 33.5899Z" fill="#FF852D"/>
</g>
<defs>
<clipPath id="clip0_967_4489">
<rect width="120" height="60" fill="white"/>
</clipPath>
</defs>
</svg>
