<svg width="230" height="230" viewBox="0 0 230 230" fill="none" xmlns="http://www.w3.org/2000/svg">
<g filter="url(#filter0_b_967_3776)">
<path d="M1 31C1 14.4315 14.4315 1 31 1H199C215.569 1 229 14.4315 229 31V199C229 215.569 215.569 229 199 229H31C14.4315 229 1 215.569 1 199V31Z" fill="white" fill-opacity="0.05"/>
</g>
<g filter="url(#filter1_b_967_3776)">
<path fill-rule="evenodd" clip-rule="evenodd" d="M31 2C14.9837 2 2 14.9837 2 31V73C2 73.5523 1.55228 74 1 74C0.447715 74 0 73.5523 0 73V31C0 13.8792 13.8792 0 31 0H73C73.5523 0 74 0.447715 74 1C74 1.55228 73.5523 2 73 2H31ZM156 1C156 0.447715 156.448 0 157 0H199C216.121 0 230 13.8792 230 31V73C230 73.5523 229.552 74 229 74C228.448 74 228 73.5523 228 73V31C228 14.9837 215.016 2 199 2H157C156.448 2 156 1.55228 156 1ZM1 156C1.55228 156 2 156.448 2 157V199C2 215.016 14.9837 228 31 228H73C73.5523 228 74 228.448 74 229C74 229.552 73.5523 230 73 230H31C13.8792 230 0 216.121 0 199V157C0 156.448 0.447715 156 1 156ZM229 156C229.552 156 230 156.448 230 157V199C230 216.121 216.121 230 199 230H157C156.448 230 156 229.552 156 229C156 228.448 156.448 228 157 228H199C215.016 228 228 215.016 228 199V157C228 156.448 228.448 156 229 156Z" fill="white"/>
</g>
<path d="M47.0362 43.1562H43.1562V47.0362H47.0362V43.1562Z" fill="white"/>
<path d="M50.917 43.1562H47.0371V47.0362H50.917V43.1562Z" fill="white"/>
<path d="M54.7959 43.1562H50.916V47.0362H54.7959V43.1562Z" fill="white"/>
<path d="M58.6768 43.1562H54.7969V47.0362H58.6768V43.1562Z" fill="white"/>
<path d="M62.5557 43.1562H58.6758V47.0362H62.5557V43.1562Z" fill="white"/>
<path d="M66.4346 43.1562H62.5547V47.0362H66.4346V43.1562Z" fill="white"/>
<path d="M70.3155 43.1562H66.4355V47.0362H70.3155V43.1562Z" fill="white"/>
<path d="M97.4776 43.1562H93.5977V47.0362H97.4776V43.1562Z" fill="white"/>
<path d="M101.356 43.1562H97.4766V47.0362H101.356V43.1562Z" fill="white"/>
<path d="M109.112 43.1562H105.232V47.0362H109.112V43.1562Z" fill="white"/>
<path d="M112.995 43.1562H109.115V47.0362H112.995V43.1562Z" fill="white"/>
<path d="M116.876 43.1562H112.996V47.0362H116.876V43.1562Z" fill="white"/>
<path d="M124.634 43.1562H120.754V47.0362H124.634V43.1562Z" fill="white"/>
<path d="M140.155 43.1562H136.275V47.0362H140.155V43.1562Z" fill="white"/>
<path d="M144.034 43.1562H140.154V47.0362H144.034V43.1562Z" fill="white"/>
<path d="M151.794 43.1562H147.914V47.0362H151.794V43.1562Z" fill="white"/>
<path d="M155.673 43.1562H151.793V47.0362H155.673V43.1562Z" fill="white"/>
<path d="M163.433 43.1562H159.553V47.0362H163.433V43.1562Z" fill="white"/>
<path d="M167.314 43.1562H163.434V47.0362H167.314V43.1562Z" fill="white"/>
<path d="M171.192 43.1562H167.312V47.0362H171.192V43.1562Z" fill="white"/>
<path d="M175.075 43.1562H171.195V47.0362H175.075V43.1562Z" fill="white"/>
<path d="M178.956 43.1562H175.076V47.0362H178.956V43.1562Z" fill="white"/>
<path d="M182.835 43.1562H178.955V47.0362H182.835V43.1562Z" fill="white"/>
<path d="M186.712 43.1562H182.832V47.0362H186.712V43.1562Z" fill="white"/>
<path d="M47.0362 47.0371H43.1562V50.917H47.0362V47.0371Z" fill="white"/>
<path d="M70.3155 47.0371H66.4355V50.917H70.3155V47.0371Z" fill="white"/>
<path d="M78.0752 47.0371H74.1953V50.917H78.0752V47.0371Z" fill="white"/>
<path d="M81.9541 47.0371H78.0742V50.917H81.9541V47.0371Z" fill="white"/>
<path d="M89.7139 47.0371H85.834V50.917H89.7139V47.0371Z" fill="white"/>
<path d="M93.5967 47.0371H89.7168V50.917H93.5967V47.0371Z" fill="white"/>
<path d="M105.235 47.0371H101.355V50.917H105.235V47.0371Z" fill="white"/>
<path d="M109.112 47.0371H105.232V50.917H109.112V47.0371Z" fill="white"/>
<path d="M124.634 47.0371H120.754V50.917H124.634V47.0371Z" fill="white"/>
<path d="M132.396 47.0371H128.516V50.917H132.396V47.0371Z" fill="white"/>
<path d="M136.274 47.0371H132.395V50.917H136.274V47.0371Z" fill="white"/>
<path d="M144.034 47.0371H140.154V50.917H144.034V47.0371Z" fill="white"/>
<path d="M147.913 47.0371H144.033V50.917H147.913V47.0371Z" fill="white"/>
<path d="M163.433 47.0371H159.553V50.917H163.433V47.0371Z" fill="white"/>
<path d="M186.712 47.0371H182.832V50.917H186.712V47.0371Z" fill="white"/>
<path d="M47.0362 50.916H43.1562V54.7959H47.0362V50.916Z" fill="white"/>
<path d="M54.7959 50.916H50.916V54.7959H54.7959V50.916Z" fill="white"/>
<path d="M58.6768 50.916H54.7969V54.7959H58.6768V50.916Z" fill="white"/>
<path d="M62.5557 50.916H58.6758V54.7959H62.5557V50.916Z" fill="white"/>
<path d="M70.3155 50.916H66.4355V54.7959H70.3155V50.916Z" fill="white"/>
<path d="M78.0752 50.916H74.1953V54.7959H78.0752V50.916Z" fill="white"/>
<path d="M85.835 50.916H81.9551V54.7959H85.835V50.916Z" fill="white"/>
<path d="M101.356 50.916H97.4766V54.7959H101.356V50.916Z" fill="white"/>
<path d="M109.112 50.916H105.232V54.7959H109.112V50.916Z" fill="white"/>
<path d="M116.876 50.916H112.996V54.7959H116.876V50.916Z" fill="white"/>
<path d="M120.755 50.916H116.875V54.7959H120.755V50.916Z" fill="white"/>
<path d="M128.515 50.916H124.635V54.7959H128.515V50.916Z" fill="white"/>
<path d="M136.274 50.916H132.395V54.7959H136.274V50.916Z" fill="white"/>
<path d="M140.155 50.916H136.275V54.7959H140.155V50.916Z" fill="white"/>
<path d="M144.034 50.916H140.154V54.7959H144.034V50.916Z" fill="white"/>
<path d="M163.433 50.916H159.553V54.7959H163.433V50.916Z" fill="white"/>
<path d="M171.192 50.916H167.312V54.7959H171.192V50.916Z" fill="white"/>
<path d="M175.075 50.916H171.195V54.7959H175.075V50.916Z" fill="white"/>
<path d="M178.956 50.916H175.076V54.7959H178.956V50.916Z" fill="white"/>
<path d="M186.712 50.916H182.832V54.7959H186.712V50.916Z" fill="white"/>
<path d="M47.0362 54.7969H43.1562V58.6768H47.0362V54.7969Z" fill="white"/>
<path d="M54.7959 54.7969H50.916V58.6768H54.7959V54.7969Z" fill="white"/>
<path d="M58.6768 54.7969H54.7969V58.6768H58.6768V54.7969Z" fill="white"/>
<path d="M62.5557 54.7969H58.6758V58.6768H62.5557V54.7969Z" fill="white"/>
<path d="M70.3155 54.7969H66.4355V58.6768H70.3155V54.7969Z" fill="white"/>
<path d="M78.0752 54.7969H74.1953V58.6768H78.0752V54.7969Z" fill="white"/>
<path d="M81.9541 54.7969H78.0742V58.6768H81.9541V54.7969Z" fill="white"/>
<path d="M85.835 54.7949H81.9551V58.6749H85.835V54.7949Z" fill="white"/>
<path d="M89.7139 54.7949H85.834V58.6749H89.7139V54.7949Z" fill="white"/>
<path d="M97.4776 54.7949H93.5977V58.6749H97.4776V54.7949Z" fill="white"/>
<path d="M101.356 54.7949H97.4766V58.6749H101.356V54.7949Z" fill="white"/>
<path d="M116.876 54.7949H112.996V58.6749H116.876V54.7949Z" fill="white"/>
<path d="M120.755 54.7949H116.875V58.6749H120.755V54.7949Z" fill="white"/>
<path d="M124.634 54.7949H120.754V58.6749H124.634V54.7949Z" fill="white"/>
<path d="M128.515 54.7969H124.635V58.6768H128.515V54.7969Z" fill="white"/>
<path d="M147.913 54.7969H144.033V58.6768H147.913V54.7969Z" fill="white"/>
<path d="M163.433 54.7969H159.553V58.6768H163.433V54.7969Z" fill="white"/>
<path d="M171.192 54.7949H167.312V58.6749H171.192V54.7949Z" fill="white"/>
<path d="M175.075 54.7949H171.195V58.6749H175.075V54.7949Z" fill="white"/>
<path d="M178.956 54.7949H175.076V58.6749H178.956V54.7949Z" fill="white"/>
<path d="M186.712 54.7949H182.832V58.6749H186.712V54.7949Z" fill="white"/>
<path d="M47.0362 58.6758H43.1562V62.5557H47.0362V58.6758Z" fill="white"/>
<path d="M54.7959 58.6758H50.916V62.5557H54.7959V58.6758Z" fill="white"/>
<path d="M58.6768 58.6758H54.7969V62.5557H58.6768V58.6758Z" fill="white"/>
<path d="M62.5557 58.6758H58.6758V62.5557H62.5557V58.6758Z" fill="white"/>
<path d="M70.3155 58.6758H66.4355V62.5557H70.3155V58.6758Z" fill="white"/>
<path d="M78.0752 58.6758H74.1953V62.5557H78.0752V58.6758Z" fill="white"/>
<path d="M81.9541 58.6758H78.0742V62.5557H81.9541V58.6758Z" fill="white"/>
<path d="M85.835 58.6758H81.9551V62.5557H85.835V58.6758Z" fill="white"/>
<path d="M89.7139 58.6758H85.834V62.5557H89.7139V58.6758Z" fill="white"/>
<path d="M101.356 58.6758H97.4766V62.5557H101.356V58.6758Z" fill="white"/>
<path d="M109.112 58.6758H105.232V62.5557H109.112V58.6758Z" fill="white"/>
<path d="M112.995 58.6758H109.115V62.5557H112.995V58.6758Z" fill="white"/>
<path d="M116.876 58.6758H112.996V62.5557H116.876V58.6758Z" fill="white"/>
<path d="M120.755 58.6758H116.875V62.5557H120.755V58.6758Z" fill="white"/>
<path d="M132.396 58.6758H128.516V62.5557H132.396V58.6758Z" fill="white"/>
<path d="M140.155 58.6758H136.275V62.5557H140.155V58.6758Z" fill="white"/>
<path d="M144.034 58.6758H140.154V62.5557H144.034V58.6758Z" fill="white"/>
<path d="M155.673 58.6758H151.793V62.5557H155.673V58.6758Z" fill="white"/>
<path d="M163.433 58.6758H159.553V62.5557H163.433V58.6758Z" fill="white"/>
<path d="M171.192 58.6758H167.312V62.5557H171.192V58.6758Z" fill="white"/>
<path d="M175.075 58.6758H171.195V62.5557H175.075V58.6758Z" fill="white"/>
<path d="M178.956 58.6758H175.076V62.5557H178.956V58.6758Z" fill="white"/>
<path d="M186.712 58.6758H182.832V62.5557H186.712V58.6758Z" fill="white"/>
<path d="M47.0362 62.5547H43.1562V66.4346H47.0362V62.5547Z" fill="white"/>
<path d="M70.3155 62.5547H66.4355V66.4346H70.3155V62.5547Z" fill="white"/>
<path d="M78.0752 62.5547H74.1953V66.4346H78.0752V62.5547Z" fill="white"/>
<path d="M85.835 62.5586H81.9551V66.4385H85.835V62.5586Z" fill="white"/>
<path d="M93.5967 62.5586H89.7168V66.4385H93.5967V62.5586Z" fill="white"/>
<path d="M97.4776 62.5586H93.5977V66.4385H97.4776V62.5586Z" fill="white"/>
<path d="M101.356 62.5586H97.4766V66.4385H101.356V62.5586Z" fill="white"/>
<path d="M105.235 62.5586H101.355V66.4385H105.235V62.5586Z" fill="white"/>
<path d="M116.876 62.5586H112.996V66.4385H116.876V62.5586Z" fill="white"/>
<path d="M120.755 62.5586H116.875V66.4385H120.755V62.5586Z" fill="white"/>
<path d="M124.634 62.5586H120.754V66.4385H124.634V62.5586Z" fill="white"/>
<path d="M144.034 62.5547H140.154V66.4346H144.034V62.5547Z" fill="white"/>
<path d="M147.913 62.5547H144.033V66.4346H147.913V62.5547Z" fill="white"/>
<path d="M151.794 62.5547H147.914V66.4346H151.794V62.5547Z" fill="white"/>
<path d="M155.673 62.5547H151.793V66.4346H155.673V62.5547Z" fill="white"/>
<path d="M163.433 62.5547H159.553V66.4346H163.433V62.5547Z" fill="white"/>
<path d="M186.712 62.5586H182.832V66.4385H186.712V62.5586Z" fill="white"/>
<path d="M47.0362 66.4355H43.1562V70.3155H47.0362V66.4355Z" fill="white"/>
<path d="M50.917 66.4355H47.0371V70.3155H50.917V66.4355Z" fill="white"/>
<path d="M54.7959 66.4355H50.916V70.3155H54.7959V66.4355Z" fill="white"/>
<path d="M58.6768 66.4355H54.7969V70.3155H58.6768V66.4355Z" fill="white"/>
<path d="M62.5557 66.4355H58.6758V70.3155H62.5557V66.4355Z" fill="white"/>
<path d="M66.4346 66.4355H62.5547V70.3155H66.4346V66.4355Z" fill="white"/>
<path d="M70.3155 66.4355H66.4355V70.3155H70.3155V66.4355Z" fill="white"/>
<path d="M78.0752 66.4355H74.1953V70.3155H78.0752V66.4355Z" fill="white"/>
<path d="M85.835 66.4355H81.9551V70.3155H85.835V66.4355Z" fill="white"/>
<path d="M93.5967 66.4355H89.7168V70.3155H93.5967V66.4355Z" fill="white"/>
<path d="M101.356 66.4355H97.4766V70.3155H101.356V66.4355Z" fill="white"/>
<path d="M109.112 66.4355H105.232V70.3155H109.112V66.4355Z" fill="white"/>
<path d="M116.876 66.4355H112.996V70.3155H116.876V66.4355Z" fill="white"/>
<path d="M124.634 66.4355H120.754V70.3155H124.634V66.4355Z" fill="white"/>
<path d="M132.396 66.4355H128.516V70.3155H132.396V66.4355Z" fill="white"/>
<path d="M140.155 66.4355H136.275V70.3155H140.155V66.4355Z" fill="white"/>
<path d="M147.913 66.4355H144.033V70.3155H147.913V66.4355Z" fill="white"/>
<path d="M155.673 66.4355H151.793V70.3155H155.673V66.4355Z" fill="white"/>
<path d="M163.433 66.4355H159.553V70.3155H163.433V66.4355Z" fill="white"/>
<path d="M167.314 66.4355H163.434V70.3155H167.314V66.4355Z" fill="white"/>
<path d="M171.192 66.4355H167.312V70.3155H171.192V66.4355Z" fill="white"/>
<path d="M175.075 66.4355H171.195V70.3155H175.075V66.4355Z" fill="white"/>
<path d="M178.956 66.4355H175.076V70.3155H178.956V66.4355Z" fill="white"/>
<path d="M182.835 66.4355H178.955V70.3155H182.835V66.4355Z" fill="white"/>
<path d="M186.712 66.4355H182.832V70.3155H186.712V66.4355Z" fill="white"/>
<path d="M85.835 70.3145H81.9551V74.1944H85.835V70.3145Z" fill="white"/>
<path d="M89.7139 70.3145H85.834V74.1944H89.7139V70.3145Z" fill="white"/>
<path d="M97.4776 70.3145H93.5977V74.1944H97.4776V70.3145Z" fill="white"/>
<path d="M112.995 70.3145H109.115V74.1944H112.995V70.3145Z" fill="white"/>
<path d="M116.876 70.3145H112.996V74.1944H116.876V70.3145Z" fill="white"/>
<path d="M124.634 70.3145H120.754V74.1944H124.634V70.3145Z" fill="white"/>
<path d="M128.515 70.3145H124.635V74.1944H128.515V70.3145Z" fill="white"/>
<path d="M136.274 70.3145H132.395V74.1944H136.274V70.3145Z" fill="white"/>
<path d="M147.913 70.3145H144.033V74.1944H147.913V70.3145Z" fill="white"/>
<path d="M151.794 70.3145H147.914V74.1944H151.794V70.3145Z" fill="white"/>
<path d="M54.7959 74.1953H50.916V78.0752H54.7959V74.1953Z" fill="white"/>
<path d="M66.4346 74.1953H62.5547V78.0752H66.4346V74.1953Z" fill="white"/>
<path d="M70.3155 74.1953H66.4355V78.0752H70.3155V74.1953Z" fill="white"/>
<path d="M74.1944 74.1953H70.3145V78.0752H74.1944V74.1953Z" fill="white"/>
<path d="M78.0752 74.1953H74.1953V78.0752H78.0752V74.1953Z" fill="white"/>
<path d="M81.9541 74.1953H78.0742V78.0752H81.9541V74.1953Z" fill="white"/>
<path d="M85.835 74.1953H81.9551V78.0752H85.835V74.1953Z" fill="white"/>
<path d="M97.4776 74.1953H93.5977V78.0752H97.4776V74.1953Z" fill="white"/>
<path d="M101.356 74.1953H97.4766V78.0752H101.356V74.1953Z" fill="white"/>
<path d="M105.235 74.1953H101.355V78.0752H105.235V74.1953Z" fill="white"/>
<path d="M120.755 74.1953H116.875V78.0752H120.755V74.1953Z" fill="white"/>
<path d="M128.515 74.1953H124.635V78.0752H128.515V74.1953Z" fill="white"/>
<path d="M132.396 74.1953H128.516V78.0752H132.396V74.1953Z" fill="white"/>
<path d="M140.155 74.1953H136.275V78.0752H140.155V74.1953Z" fill="white"/>
<path d="M147.913 74.1953H144.033V78.0752H147.913V74.1953Z" fill="white"/>
<path d="M151.794 74.1953H147.914V78.0752H151.794V74.1953Z" fill="white"/>
<path d="M159.554 74.1953H155.674V78.0752H159.554V74.1953Z" fill="white"/>
<path d="M167.314 74.1953H163.434V78.0752H167.314V74.1953Z" fill="white"/>
<path d="M171.192 74.1953H167.312V78.0752H171.192V74.1953Z" fill="white"/>
<path d="M175.075 74.1953H171.195V78.0752H175.075V74.1953Z" fill="white"/>
<path d="M178.956 74.1953H175.076V78.0752H178.956V74.1953Z" fill="white"/>
<path d="M182.835 74.1953H178.955V78.0752H182.835V74.1953Z" fill="white"/>
<path d="M54.7959 78.0742H50.916V81.9541H54.7959V78.0742Z" fill="white"/>
<path d="M58.6768 78.0742H54.7969V81.9541H58.6768V78.0742Z" fill="white"/>
<path d="M62.5557 78.0742H58.6758V81.9541H62.5557V78.0742Z" fill="white"/>
<path d="M78.0752 78.0742H74.1953V81.9541H78.0752V78.0742Z" fill="white"/>
<path d="M93.5967 78.0781H89.7168V81.9581H93.5967V78.0781Z" fill="white"/>
<path d="M105.235 78.0781H101.355V81.9581H105.235V78.0781Z" fill="white"/>
<path d="M109.112 78.0781H105.232V81.9581H109.112V78.0781Z" fill="white"/>
<path d="M112.995 78.0781H109.115V81.9581H112.995V78.0781Z" fill="white"/>
<path d="M120.755 78.0781H116.875V81.9581H120.755V78.0781Z" fill="white"/>
<path d="M128.515 78.0742H124.635V81.9541H128.515V78.0742Z" fill="white"/>
<path d="M132.396 78.0742H128.516V81.9541H132.396V78.0742Z" fill="white"/>
<path d="M140.155 78.0742H136.275V81.9541H140.155V78.0742Z" fill="white"/>
<path d="M155.673 78.0742H151.793V81.9541H155.673V78.0742Z" fill="white"/>
<path d="M163.433 78.0742H159.553V81.9541H163.433V78.0742Z" fill="white"/>
<path d="M175.075 78.0781H171.195V81.9581H175.075V78.0781Z" fill="white"/>
<path d="M182.835 78.0781H178.955V81.9581H182.835V78.0781Z" fill="white"/>
<path d="M47.0362 81.9551H43.1562V85.835H47.0362V81.9551Z" fill="white"/>
<path d="M58.6749 81.9551H54.7949V85.835H58.6749V81.9551Z" fill="white"/>
<path d="M66.4385 81.9551H62.5586V85.835H66.4385V81.9551Z" fill="white"/>
<path d="M70.3155 81.9551H66.4355V85.835H70.3155V81.9551Z" fill="white"/>
<path d="M74.1944 81.9551H70.3145V85.835H74.1944V81.9551Z" fill="white"/>
<path d="M78.0752 81.9551H74.1953V85.835H78.0752V81.9551Z" fill="white"/>
<path d="M81.9581 81.9551H78.0781V85.835H81.9581V81.9551Z" fill="white"/>
<path d="M93.5967 81.9551H89.7168V85.835H93.5967V81.9551Z" fill="white"/>
<path d="M105.235 81.9551H101.355V85.835H105.235V81.9551Z" fill="white"/>
<path d="M109.112 81.9551H105.232V85.835H109.112V81.9551Z" fill="white"/>
<path d="M116.876 81.9551H112.996V85.835H116.876V81.9551Z" fill="white"/>
<path d="M140.153 81.9551H136.273V85.835H140.153V81.9551Z" fill="white"/>
<path d="M147.915 81.9551H144.035V85.835H147.915V81.9551Z" fill="white"/>
<path d="M151.794 81.9551H147.914V85.835H151.794V81.9551Z" fill="white"/>
<path d="M155.673 81.9551H151.793V85.835H155.673V81.9551Z" fill="white"/>
<path d="M163.437 81.9551H159.557V85.835H163.437V81.9551Z" fill="white"/>
<path d="M167.314 81.9551H163.434V85.835H167.314V81.9551Z" fill="white"/>
<path d="M50.917 85.834H47.0371V89.7139H50.917V85.834Z" fill="white"/>
<path d="M58.6749 85.834H54.7949V89.7139H58.6749V85.834Z" fill="white"/>
<path d="M62.5557 85.834H58.6758V89.7139H62.5557V85.834Z" fill="white"/>
<path d="M66.4385 85.834H62.5586V89.7139H66.4385V85.834Z" fill="white"/>
<path d="M78.0752 85.834H74.1953V89.7139H78.0752V85.834Z" fill="white"/>
<path d="M81.9581 85.834H78.0781V89.7139H81.9581V85.834Z" fill="white"/>
<path d="M97.4776 85.834H93.5977V89.7139H97.4776V85.834Z" fill="white"/>
<path d="M101.356 85.834H97.4766V89.7139H101.356V85.834Z" fill="white"/>
<path d="M109.112 85.834H105.232V89.7139H109.112V85.834Z" fill="white"/>
<path d="M116.876 85.834H112.996V89.7139H116.876V85.834Z" fill="white"/>
<path d="M124.634 85.834H120.754V89.7139H124.634V85.834Z" fill="white"/>
<path d="M128.515 85.834H124.635V89.7139H128.515V85.834Z" fill="white"/>
<path d="M132.396 85.834H128.516V89.7139H132.396V85.834Z" fill="white"/>
<path d="M136.274 85.834H132.395V89.7139H136.274V85.834Z" fill="white"/>
<path d="M144.034 85.834H140.154V89.7139H144.034V85.834Z" fill="white"/>
<path d="M151.794 85.834H147.914V89.7139H151.794V85.834Z" fill="white"/>
<path d="M155.673 85.834H151.793V89.7139H155.673V85.834Z" fill="white"/>
<path d="M159.554 85.834H155.674V89.7139H159.554V85.834Z" fill="white"/>
<path d="M163.437 85.834H159.557V89.7139H163.437V85.834Z" fill="white"/>
<path d="M167.314 85.834H163.434V89.7139H167.314V85.834Z" fill="white"/>
<path d="M175.075 85.834H171.195V89.7139H175.075V85.834Z" fill="white"/>
<path d="M186.712 85.834H182.832V89.7139H186.712V85.834Z" fill="white"/>
<path d="M58.6749 89.7168H54.7949V93.5967H58.6749V89.7168Z" fill="white"/>
<path d="M62.5557 89.7168H58.6758V93.5967H62.5557V89.7168Z" fill="white"/>
<path d="M70.3155 89.7168H66.4355V93.5967H70.3155V89.7168Z" fill="white"/>
<path d="M81.9581 89.7168H78.0781V93.5967H81.9581V89.7168Z" fill="white"/>
<path d="M89.7139 89.7168H85.834V93.5967H89.7139V89.7168Z" fill="white"/>
<path d="M93.5967 89.7168H89.7168V93.5967H93.5967V89.7168Z" fill="white"/>
<path d="M124.634 89.7168H120.754V93.5967H124.634V89.7168Z" fill="white"/>
<path d="M132.396 89.7168H128.516V93.5967H132.396V89.7168Z" fill="white"/>
<path d="M136.274 89.7168H132.395V93.5967H136.274V89.7168Z" fill="white"/>
<path d="M151.794 89.7168H147.914V93.5967H151.794V89.7168Z" fill="white"/>
<path d="M155.673 89.7168H151.793V93.5967H155.673V89.7168Z" fill="white"/>
<path d="M163.437 89.7168H159.557V93.5967H163.437V89.7168Z" fill="white"/>
<path d="M175.075 89.7168H171.195V93.5967H175.075V89.7168Z" fill="white"/>
<path d="M186.712 89.7168H182.832V93.5967H186.712V89.7168Z" fill="white"/>
<path d="M54.7959 93.5977H50.916V97.4776H54.7959V93.5977Z" fill="white"/>
<path d="M58.6749 93.5977H54.7949V97.4776H58.6749V93.5977Z" fill="white"/>
<path d="M89.7139 93.5977H85.834V97.4776H89.7139V93.5977Z" fill="white"/>
<path d="M93.5967 93.5977H89.7168V97.4776H93.5967V93.5977Z" fill="white"/>
<path d="M97.4776 93.5977H93.5977V97.4776H97.4776V93.5977Z" fill="white"/>
<path d="M101.356 93.5977H97.4766V97.4776H101.356V93.5977Z" fill="white"/>
<path d="M109.112 93.5977H105.232V97.4776H109.112V93.5977Z" fill="white"/>
<path d="M116.876 93.5977H112.996V97.4776H116.876V93.5977Z" fill="white"/>
<path d="M120.755 93.5977H116.875V97.4776H120.755V93.5977Z" fill="white"/>
<path d="M128.515 93.5977H124.635V97.4776H128.515V93.5977Z" fill="white"/>
<path d="M132.396 93.5977H128.516V97.4776H132.396V93.5977Z" fill="white"/>
<path d="M140.153 93.5977H136.273V97.4776H140.153V93.5977Z" fill="white"/>
<path d="M147.915 93.5977H144.035V97.4776H147.915V93.5977Z" fill="white"/>
<path d="M155.673 93.5977H151.793V97.4776H155.673V93.5977Z" fill="white"/>
<path d="M167.314 93.5977H163.434V97.4776H167.314V93.5977Z" fill="white"/>
<path d="M171.192 93.5977H167.312V97.4776H171.192V93.5977Z" fill="white"/>
<path d="M182.835 93.5977H178.955V97.4776H182.835V93.5977Z" fill="white"/>
<path d="M186.712 93.5977H182.832V97.4776H186.712V93.5977Z" fill="white"/>
<path d="M54.7959 97.4766H50.916V101.356H54.7959V97.4766Z" fill="white"/>
<path d="M62.5557 97.4766H58.6758V101.356H62.5557V97.4766Z" fill="white"/>
<path d="M66.4385 97.4766H62.5586V101.356H66.4385V97.4766Z" fill="white"/>
<path d="M70.3155 97.4766H66.4355V101.356H70.3155V97.4766Z" fill="white"/>
<path d="M74.1944 97.4766H70.3145V101.356H74.1944V97.4766Z" fill="white"/>
<path d="M89.7139 97.4766H85.834V101.356H89.7139V97.4766Z" fill="white"/>
<path d="M93.5967 97.4766H89.7168V101.356H93.5967V97.4766Z" fill="white"/>
<path d="M101.356 97.4766H97.4766V101.356H101.356V97.4766Z" fill="white"/>
<path d="M109.112 97.4766H105.232V101.356H109.112V97.4766Z" fill="white"/>
<path d="M120.755 97.4766H116.875V101.356H120.755V97.4766Z" fill="white"/>
<path d="M132.396 97.4766H128.516V101.356H132.396V97.4766Z" fill="white"/>
<path d="M140.153 97.4766H136.273V101.356H140.153V97.4766Z" fill="white"/>
<path d="M151.794 97.4766H147.914V101.356H151.794V97.4766Z" fill="white"/>
<path d="M163.437 97.4766H159.557V101.356H163.437V97.4766Z" fill="white"/>
<path d="M167.314 97.4766H163.434V101.356H167.314V97.4766Z" fill="white"/>
<path d="M175.075 97.4766H171.195V101.356H175.075V97.4766Z" fill="white"/>
<path d="M186.712 97.4766H182.832V101.356H186.712V97.4766Z" fill="white"/>
<path d="M50.917 101.355H47.0371V105.235H50.917V101.355Z" fill="white"/>
<path d="M62.5557 101.355H58.6758V105.235H62.5557V101.355Z" fill="white"/>
<path d="M66.4385 101.355H62.5586V105.235H66.4385V101.355Z" fill="white"/>
<path d="M85.835 101.355H81.9551V105.235H85.835V101.355Z" fill="white"/>
<path d="M93.5967 101.355H89.7168V105.235H93.5967V101.355Z" fill="white"/>
<path d="M97.4776 101.355H93.5977V105.235H97.4776V101.355Z" fill="white"/>
<path d="M109.112 101.355H105.232V105.235H109.112V101.355Z" fill="white"/>
<path d="M116.876 101.355H112.996V105.235H116.876V101.355Z" fill="white"/>
<path d="M124.634 101.355H120.754V105.235H124.634V101.355Z" fill="white"/>
<path d="M132.396 101.355H128.516V105.235H132.396V101.355Z" fill="white"/>
<path d="M136.274 101.355H132.395V105.235H136.274V101.355Z" fill="white"/>
<path d="M140.153 101.355H136.273V105.235H140.153V101.355Z" fill="white"/>
<path d="M151.794 101.355H147.914V105.235H151.794V101.355Z" fill="white"/>
<path d="M155.673 101.355H151.793V105.235H155.673V101.355Z" fill="white"/>
<path d="M163.437 101.355H159.557V105.235H163.437V101.355Z" fill="white"/>
<path d="M167.314 101.355H163.434V105.235H167.314V101.355Z" fill="white"/>
<path d="M178.956 101.355H175.076V105.235H178.956V101.355Z" fill="white"/>
<path d="M182.835 101.355H178.955V105.235H182.835V101.355Z" fill="white"/>
<path d="M186.712 101.355H182.832V105.235H186.712V101.355Z" fill="white"/>
<path d="M54.7959 105.232H50.916V109.112H54.7959V105.232Z" fill="white"/>
<path d="M58.6749 105.232H54.7949V109.112H58.6749V105.232Z" fill="white"/>
<path d="M62.5557 105.232H58.6758V109.112H62.5557V105.232Z" fill="white"/>
<path d="M66.4385 105.232H62.5586V109.112H66.4385V105.232Z" fill="white"/>
<path d="M70.3155 105.232H66.4355V109.112H70.3155V105.232Z" fill="white"/>
<path d="M74.1944 105.232H70.3145V109.112H74.1944V105.232Z" fill="white"/>
<path d="M78.0752 105.232H74.1953V109.112H78.0752V105.232Z" fill="white"/>
<path d="M89.7139 105.232H85.834V109.112H89.7139V105.232Z" fill="white"/>
<path d="M93.5967 105.232H89.7168V109.112H93.5967V105.232Z" fill="white"/>
<path d="M101.356 105.232H97.4766V109.112H101.356V105.232Z" fill="white"/>
<path d="M105.235 105.232H101.355V109.112H105.235V105.232Z" fill="white"/>
<path d="M109.112 105.232H105.232V109.112H109.112V105.232Z" fill="white"/>
<path d="M112.995 105.232H109.115V109.112H112.995V105.232Z" fill="white"/>
<path d="M120.755 105.232H116.875V109.112H120.755V105.232Z" fill="white"/>
<path d="M124.634 105.232H120.754V109.112H124.634V105.232Z" fill="white"/>
<path d="M128.515 105.232H124.635V109.112H128.515V105.232Z" fill="white"/>
<path d="M151.794 105.232H147.914V109.112H151.794V105.232Z" fill="white"/>
<path d="M155.673 105.232H151.793V109.112H155.673V105.232Z" fill="white"/>
<path d="M171.192 105.232H167.312V109.112H171.192V105.232Z" fill="white"/>
<path d="M175.075 105.232H171.195V109.112H175.075V105.232Z" fill="white"/>
<path d="M186.712 105.232H182.832V109.112H186.712V105.232Z" fill="white"/>
<path d="M47.0362 109.115H43.1562V112.995H47.0362V109.115Z" fill="white"/>
<path d="M50.917 109.115H47.0371V112.995H50.917V109.115Z" fill="white"/>
<path d="M58.6749 109.115H54.7949V112.995H58.6749V109.115Z" fill="white"/>
<path d="M66.4385 109.115H62.5586V112.995H66.4385V109.115Z" fill="white"/>
<path d="M74.1944 109.115H70.3145V112.995H74.1944V109.115Z" fill="white"/>
<path d="M89.7139 109.115H85.834V112.995H89.7139V109.115Z" fill="white"/>
<path d="M97.4776 109.115H93.5977V112.995H97.4776V109.115Z" fill="white"/>
<path d="M105.235 109.115H101.355V112.995H105.235V109.115Z" fill="white"/>
<path d="M112.995 109.115H109.115V112.995H112.995V109.115Z" fill="white"/>
<path d="M120.755 109.115H116.875V112.995H120.755V109.115Z" fill="white"/>
<path d="M128.515 109.115H124.635V112.995H128.515V109.115Z" fill="white"/>
<path d="M132.396 109.115H128.516V112.995H132.396V109.115Z" fill="white"/>
<path d="M136.274 109.115H132.395V112.995H136.274V109.115Z" fill="white"/>
<path d="M147.915 109.115H144.035V112.995H147.915V109.115Z" fill="white"/>
<path d="M155.673 109.115H151.793V112.995H155.673V109.115Z" fill="white"/>
<path d="M163.437 109.115H159.557V112.995H163.437V109.115Z" fill="white"/>
<path d="M171.192 109.115H167.312V112.995H171.192V109.115Z" fill="white"/>
<path d="M175.075 109.115H171.195V112.995H175.075V109.115Z" fill="white"/>
<path d="M47.0362 112.996H43.1562V116.876H47.0362V112.996Z" fill="white"/>
<path d="M62.5557 112.996H58.6758V116.876H62.5557V112.996Z" fill="white"/>
<path d="M66.4385 112.996H62.5586V116.876H66.4385V112.996Z" fill="white"/>
<path d="M70.3155 112.996H66.4355V116.876H70.3155V112.996Z" fill="white"/>
<path d="M74.1944 112.996H70.3145V116.876H74.1944V112.996Z" fill="white"/>
<path d="M81.9581 112.996H78.0781V116.876H81.9581V112.996Z" fill="white"/>
<path d="M85.835 112.996H81.9551V116.876H85.835V112.996Z" fill="white"/>
<path d="M89.7139 112.996H85.834V116.876H89.7139V112.996Z" fill="white"/>
<path d="M93.5967 112.996H89.7168V116.876H93.5967V112.996Z" fill="white"/>
<path d="M97.4776 112.996H93.5977V116.876H97.4776V112.996Z" fill="white"/>
<path d="M101.356 112.996H97.4766V116.876H101.356V112.996Z" fill="white"/>
<path d="M109.112 112.996H105.232V116.876H109.112V112.996Z" fill="white"/>
<path d="M112.995 112.996H109.115V116.876H112.995V112.996Z" fill="white"/>
<path d="M116.876 112.996H112.996V116.876H116.876V112.996Z" fill="white"/>
<path d="M120.755 112.996H116.875V116.876H120.755V112.996Z" fill="white"/>
<path d="M124.634 112.996H120.754V116.876H124.634V112.996Z" fill="white"/>
<path d="M128.515 112.996H124.635V116.876H128.515V112.996Z" fill="white"/>
<path d="M132.396 112.996H128.516V116.876H132.396V112.996Z" fill="white"/>
<path d="M151.794 112.996H147.914V116.876H151.794V112.996Z" fill="white"/>
<path d="M163.437 112.996H159.557V116.876H163.437V112.996Z" fill="white"/>
<path d="M167.314 112.996H163.434V116.876H167.314V112.996Z" fill="white"/>
<path d="M186.712 112.996H182.832V116.876H186.712V112.996Z" fill="white"/>
<path d="M50.917 116.875H47.0371V120.755H50.917V116.875Z" fill="white"/>
<path d="M81.9581 116.875H78.0781V120.755H81.9581V116.875Z" fill="white"/>
<path d="M85.835 116.875H81.9551V120.755H85.835V116.875Z" fill="white"/>
<path d="M101.356 116.875H97.4766V120.755H101.356V116.875Z" fill="white"/>
<path d="M112.995 116.875H109.115V120.755H112.995V116.875Z" fill="white"/>
<path d="M116.876 116.875H112.996V120.755H116.876V116.875Z" fill="white"/>
<path d="M124.634 116.875H120.754V120.755H124.634V116.875Z" fill="white"/>
<path d="M128.515 116.875H124.635V120.755H128.515V116.875Z" fill="white"/>
<path d="M136.274 116.875H132.395V120.755H136.274V116.875Z" fill="white"/>
<path d="M140.153 116.875H136.273V120.755H140.153V116.875Z" fill="white"/>
<path d="M144.034 116.875H140.154V120.755H144.034V116.875Z" fill="white"/>
<path d="M151.794 116.875H147.914V120.755H151.794V116.875Z" fill="white"/>
<path d="M155.673 116.875H151.793V120.755H155.673V116.875Z" fill="white"/>
<path d="M163.437 116.875H159.557V120.755H163.437V116.875Z" fill="white"/>
<path d="M167.314 116.875H163.434V120.755H167.314V116.875Z" fill="white"/>
<path d="M175.075 116.875H171.195V120.755H175.075V116.875Z" fill="white"/>
<path d="M186.712 116.875H182.832V120.755H186.712V116.875Z" fill="white"/>
<path d="M50.917 120.754H47.0371V124.634H50.917V120.754Z" fill="white"/>
<path d="M54.7959 120.754H50.916V124.634H54.7959V120.754Z" fill="white"/>
<path d="M58.6749 120.754H54.7949V124.634H58.6749V120.754Z" fill="white"/>
<path d="M70.3155 120.754H66.4355V124.634H70.3155V120.754Z" fill="white"/>
<path d="M85.835 120.754H81.9551V124.634H85.835V120.754Z" fill="white"/>
<path d="M89.7139 120.754H85.834V124.634H89.7139V120.754Z" fill="white"/>
<path d="M93.5967 120.754H89.7168V124.634H93.5967V120.754Z" fill="white"/>
<path d="M112.995 120.754H109.115V124.634H112.995V120.754Z" fill="white"/>
<path d="M124.634 120.754H120.754V124.634H124.634V120.754Z" fill="white"/>
<path d="M128.515 120.754H124.635V124.634H128.515V120.754Z" fill="white"/>
<path d="M132.396 120.754H128.516V124.634H132.396V120.754Z" fill="white"/>
<path d="M140.153 120.754H136.273V124.634H140.153V120.754Z" fill="white"/>
<path d="M144.034 120.754H140.154V124.634H144.034V120.754Z" fill="white"/>
<path d="M151.794 120.754H147.914V124.634H151.794V120.754Z" fill="white"/>
<path d="M167.314 120.754H163.434V124.634H167.314V120.754Z" fill="white"/>
<path d="M171.192 120.754H167.312V124.634H171.192V120.754Z" fill="white"/>
<path d="M182.835 120.754H178.955V124.634H182.835V120.754Z" fill="white"/>
<path d="M47.0362 124.635H43.1562V128.515H47.0362V124.635Z" fill="white"/>
<path d="M54.7959 124.635H50.916V128.515H54.7959V124.635Z" fill="white"/>
<path d="M62.5557 124.635H58.6758V128.515H62.5557V124.635Z" fill="white"/>
<path d="M74.1944 124.635H70.3145V128.515H74.1944V124.635Z" fill="white"/>
<path d="M89.7139 124.635H85.834V128.515H89.7139V124.635Z" fill="white"/>
<path d="M97.4776 124.635H93.5977V128.515H97.4776V124.635Z" fill="white"/>
<path d="M101.356 124.635H97.4766V128.515H101.356V124.635Z" fill="white"/>
<path d="M109.112 124.635H105.232V128.515H109.112V124.635Z" fill="white"/>
<path d="M112.995 124.635H109.115V128.515H112.995V124.635Z" fill="white"/>
<path d="M116.876 124.635H112.996V128.515H116.876V124.635Z" fill="white"/>
<path d="M128.515 124.635H124.635V128.515H128.515V124.635Z" fill="white"/>
<path d="M132.396 124.635H128.516V128.515H132.396V124.635Z" fill="white"/>
<path d="M136.274 124.635H132.395V128.515H136.274V124.635Z" fill="white"/>
<path d="M151.794 124.635H147.914V128.515H151.794V124.635Z" fill="white"/>
<path d="M159.554 124.635H155.674V128.515H159.554V124.635Z" fill="white"/>
<path d="M167.314 124.635H163.434V128.515H167.314V124.635Z" fill="white"/>
<path d="M182.835 124.635H178.955V128.515H182.835V124.635Z" fill="white"/>
<path d="M47.0362 128.516H43.1562V132.396H47.0362V128.516Z" fill="white"/>
<path d="M54.7959 128.516H50.916V132.396H54.7959V128.516Z" fill="white"/>
<path d="M58.6768 128.516H54.7969V132.396H58.6768V128.516Z" fill="white"/>
<path d="M62.5557 128.516H58.6758V132.396H62.5557V128.516Z" fill="white"/>
<path d="M66.4346 128.516H62.5547V132.396H66.4346V128.516Z" fill="white"/>
<path d="M70.3155 128.516H66.4355V132.396H70.3155V128.516Z" fill="white"/>
<path d="M74.1944 128.516H70.3145V132.396H74.1944V128.516Z" fill="white"/>
<path d="M89.7139 128.516H85.834V132.396H89.7139V128.516Z" fill="white"/>
<path d="M109.112 128.516H105.232V132.396H109.112V128.516Z" fill="white"/>
<path d="M120.755 128.516H116.875V132.396H120.755V128.516Z" fill="white"/>
<path d="M128.515 128.516H124.635V132.396H128.515V128.516Z" fill="white"/>
<path d="M132.396 128.516H128.516V132.396H132.396V128.516Z" fill="white"/>
<path d="M151.794 128.516H147.914V132.396H151.794V128.516Z" fill="white"/>
<path d="M163.433 128.516H159.553V132.396H163.433V128.516Z" fill="white"/>
<path d="M175.075 128.516H171.195V132.396H175.075V128.516Z" fill="white"/>
<path d="M186.712 128.516H182.832V132.396H186.712V128.516Z" fill="white"/>
<path d="M50.917 132.395H47.0371V136.274H50.917V132.395Z" fill="white"/>
<path d="M58.6768 132.395H54.7969V136.274H58.6768V132.395Z" fill="white"/>
<path d="M62.5557 132.395H58.6758V136.274H62.5557V132.395Z" fill="white"/>
<path d="M66.4346 132.395H62.5547V136.274H66.4346V132.395Z" fill="white"/>
<path d="M74.1944 132.395H70.3145V136.274H74.1944V132.395Z" fill="white"/>
<path d="M81.9541 132.395H78.0742V136.274H81.9541V132.395Z" fill="white"/>
<path d="M89.7139 132.395H85.834V136.274H89.7139V132.395Z" fill="white"/>
<path d="M116.876 132.395H112.996V136.274H116.876V132.395Z" fill="white"/>
<path d="M120.755 132.395H116.875V136.274H120.755V132.395Z" fill="white"/>
<path d="M124.634 132.395H120.754V136.274H124.634V132.395Z" fill="white"/>
<path d="M140.155 132.395H136.275V136.274H140.155V132.395Z" fill="white"/>
<path d="M144.034 132.395H140.154V136.274H144.034V132.395Z" fill="white"/>
<path d="M147.913 132.395H144.033V136.274H147.913V132.395Z" fill="white"/>
<path d="M151.794 132.395H147.914V136.274H151.794V132.395Z" fill="white"/>
<path d="M155.673 132.395H151.793V136.274H155.673V132.395Z" fill="white"/>
<path d="M163.433 132.395H159.553V136.274H163.433V132.395Z" fill="white"/>
<path d="M167.314 132.395H163.434V136.274H167.314V132.395Z" fill="white"/>
<path d="M175.075 132.395H171.195V136.274H175.075V132.395Z" fill="white"/>
<path d="M178.956 132.395H175.076V136.274H178.956V132.395Z" fill="white"/>
<path d="M186.712 132.395H182.832V136.274H186.712V132.395Z" fill="white"/>
<path d="M47.0362 136.275H43.1562V140.155H47.0362V136.275Z" fill="white"/>
<path d="M50.917 136.275H47.0371V140.155H50.917V136.275Z" fill="white"/>
<path d="M62.5557 136.275H58.6758V140.155H62.5557V136.275Z" fill="white"/>
<path d="M66.4346 136.275H62.5547V140.155H66.4346V136.275Z" fill="white"/>
<path d="M70.3155 136.275H66.4355V140.155H70.3155V136.275Z" fill="white"/>
<path d="M81.9541 136.275H78.0742V140.155H81.9541V136.275Z" fill="white"/>
<path d="M93.5967 136.273H89.7168V140.153H93.5967V136.273Z" fill="white"/>
<path d="M109.112 136.273H105.232V140.153H109.112V136.273Z" fill="white"/>
<path d="M128.515 136.275H124.635V140.155H128.515V136.275Z" fill="white"/>
<path d="M132.396 136.275H128.516V140.155H132.396V136.275Z" fill="white"/>
<path d="M136.274 136.275H132.395V140.155H136.274V136.275Z" fill="white"/>
<path d="M140.155 136.275H136.275V140.155H140.155V136.275Z" fill="white"/>
<path d="M144.034 136.275H140.154V140.155H144.034V136.275Z" fill="white"/>
<path d="M147.913 136.275H144.033V140.155H147.913V136.275Z" fill="white"/>
<path d="M151.794 136.275H147.914V140.155H151.794V136.275Z" fill="white"/>
<path d="M159.554 136.275H155.674V140.155H159.554V136.275Z" fill="white"/>
<path d="M163.433 136.275H159.553V140.155H163.433V136.275Z" fill="white"/>
<path d="M167.314 136.275H163.434V140.155H167.314V136.275Z" fill="white"/>
<path d="M175.075 136.273H171.195V140.153H175.075V136.273Z" fill="white"/>
<path d="M186.712 136.273H182.832V140.153H186.712V136.273Z" fill="white"/>
<path d="M50.917 140.154H47.0371V144.034H50.917V140.154Z" fill="white"/>
<path d="M62.5557 140.154H58.6758V144.034H62.5557V140.154Z" fill="white"/>
<path d="M66.4346 140.154H62.5547V144.034H66.4346V140.154Z" fill="white"/>
<path d="M85.835 140.154H81.9551V144.034H85.835V140.154Z" fill="white"/>
<path d="M89.7139 140.154H85.834V144.034H89.7139V140.154Z" fill="white"/>
<path d="M93.5967 140.154H89.7168V144.034H93.5967V140.154Z" fill="white"/>
<path d="M97.4776 140.154H93.5977V144.034H97.4776V140.154Z" fill="white"/>
<path d="M109.112 140.154H105.232V144.034H109.112V140.154Z" fill="white"/>
<path d="M112.995 140.154H109.115V144.034H112.995V140.154Z" fill="white"/>
<path d="M120.755 140.154H116.875V144.034H120.755V140.154Z" fill="white"/>
<path d="M132.396 140.154H128.516V144.034H132.396V140.154Z" fill="white"/>
<path d="M147.913 140.154H144.033V144.034H147.913V140.154Z" fill="white"/>
<path d="M151.794 140.154H147.914V144.034H151.794V140.154Z" fill="white"/>
<path d="M159.554 140.154H155.674V144.034H159.554V140.154Z" fill="white"/>
<path d="M167.314 140.154H163.434V144.034H167.314V140.154Z" fill="white"/>
<path d="M171.192 140.154H167.312V144.034H171.192V140.154Z" fill="white"/>
<path d="M175.075 140.154H171.195V144.034H175.075V140.154Z" fill="white"/>
<path d="M182.835 140.154H178.955V144.034H182.835V140.154Z" fill="white"/>
<path d="M47.0362 144.033H43.1562V147.913H47.0362V144.033Z" fill="white"/>
<path d="M50.917 144.033H47.0371V147.913H50.917V144.033Z" fill="white"/>
<path d="M54.7959 144.033H50.916V147.913H54.7959V144.033Z" fill="white"/>
<path d="M66.4346 144.033H62.5547V147.913H66.4346V144.033Z" fill="white"/>
<path d="M70.3155 144.033H66.4355V147.913H70.3155V144.033Z" fill="white"/>
<path d="M74.1944 144.033H70.3145V147.913H74.1944V144.033Z" fill="white"/>
<path d="M78.0752 144.033H74.1953V147.913H78.0752V144.033Z" fill="white"/>
<path d="M81.9541 144.033H78.0742V147.913H81.9541V144.033Z" fill="white"/>
<path d="M89.7139 144.035H85.834V147.915H89.7139V144.035Z" fill="white"/>
<path d="M93.5967 144.035H89.7168V147.915H93.5967V144.035Z" fill="white"/>
<path d="M97.4776 144.035H93.5977V147.915H97.4776V144.035Z" fill="white"/>
<path d="M101.356 144.035H97.4766V147.915H101.356V144.035Z" fill="white"/>
<path d="M105.235 144.035H101.355V147.915H105.235V144.035Z" fill="white"/>
<path d="M109.112 144.035H105.232V147.915H109.112V144.035Z" fill="white"/>
<path d="M112.995 144.035H109.115V147.915H112.995V144.035Z" fill="white"/>
<path d="M120.755 144.035H116.875V147.915H120.755V144.035Z" fill="white"/>
<path d="M128.515 144.033H124.635V147.913H128.515V144.033Z" fill="white"/>
<path d="M136.274 144.033H132.395V147.913H136.274V144.033Z" fill="white"/>
<path d="M140.155 144.033H136.275V147.913H140.155V144.033Z" fill="white"/>
<path d="M147.913 144.033H144.033V147.913H147.913V144.033Z" fill="white"/>
<path d="M155.673 144.033H151.793V147.913H155.673V144.033Z" fill="white"/>
<path d="M163.433 144.033H159.553V147.913H163.433V144.033Z" fill="white"/>
<path d="M167.314 144.033H163.434V147.913H167.314V144.033Z" fill="white"/>
<path d="M175.075 144.035H171.195V147.915H175.075V144.035Z" fill="white"/>
<path d="M182.835 144.035H178.955V147.915H182.835V144.035Z" fill="white"/>
<path d="M186.712 144.035H182.832V147.915H186.712V144.035Z" fill="white"/>
<path d="M58.6768 147.914H54.7969V151.794H58.6768V147.914Z" fill="white"/>
<path d="M62.5557 147.914H58.6758V151.794H62.5557V147.914Z" fill="white"/>
<path d="M78.0752 147.914H74.1953V151.794H78.0752V147.914Z" fill="white"/>
<path d="M85.835 147.914H81.9551V151.794H85.835V147.914Z" fill="white"/>
<path d="M101.356 147.914H97.4766V151.794H101.356V147.914Z" fill="white"/>
<path d="M105.235 147.914H101.355V151.794H105.235V147.914Z" fill="white"/>
<path d="M109.112 147.914H105.232V151.794H109.112V147.914Z" fill="white"/>
<path d="M116.876 147.914H112.996V151.794H116.876V147.914Z" fill="white"/>
<path d="M132.396 147.914H128.516V151.794H132.396V147.914Z" fill="white"/>
<path d="M144.034 147.914H140.154V151.794H144.034V147.914Z" fill="white"/>
<path d="M151.794 147.914H147.914V151.794H151.794V147.914Z" fill="white"/>
<path d="M155.673 147.914H151.793V151.794H155.673V147.914Z" fill="white"/>
<path d="M159.554 147.914H155.674V151.794H159.554V147.914Z" fill="white"/>
<path d="M163.433 147.914H159.553V151.794H163.433V147.914Z" fill="white"/>
<path d="M186.712 147.914H182.832V151.794H186.712V147.914Z" fill="white"/>
<path d="M47.0362 151.793H43.1562V155.673H47.0362V151.793Z" fill="white"/>
<path d="M50.917 151.793H47.0371V155.673H50.917V151.793Z" fill="white"/>
<path d="M54.7959 151.793H50.916V155.673H54.7959V151.793Z" fill="white"/>
<path d="M62.5557 151.793H58.6758V155.673H62.5557V151.793Z" fill="white"/>
<path d="M70.3155 151.793H66.4355V155.673H70.3155V151.793Z" fill="white"/>
<path d="M81.9541 151.793H78.0742V155.673H81.9541V151.793Z" fill="white"/>
<path d="M89.7139 151.793H85.834V155.673H89.7139V151.793Z" fill="white"/>
<path d="M109.112 151.793H105.232V155.673H109.112V151.793Z" fill="white"/>
<path d="M128.515 151.793H124.635V155.673H128.515V151.793Z" fill="white"/>
<path d="M136.274 151.793H132.395V155.673H136.274V151.793Z" fill="white"/>
<path d="M140.155 151.793H136.275V155.673H140.155V151.793Z" fill="white"/>
<path d="M151.794 151.793H147.914V155.673H151.794V151.793Z" fill="white"/>
<path d="M155.673 151.793H151.793V155.673H155.673V151.793Z" fill="white"/>
<path d="M159.554 151.793H155.674V155.673H159.554V151.793Z" fill="white"/>
<path d="M163.433 151.793H159.553V155.673H163.433V151.793Z" fill="white"/>
<path d="M167.314 151.793H163.434V155.673H167.314V151.793Z" fill="white"/>
<path d="M171.192 151.793H167.312V155.673H171.192V151.793Z" fill="white"/>
<path d="M178.956 151.793H175.076V155.673H178.956V151.793Z" fill="white"/>
<path d="M186.712 151.793H182.832V155.673H186.712V151.793Z" fill="white"/>
<path d="M78.0752 155.674H74.1953V159.554H78.0752V155.674Z" fill="white"/>
<path d="M81.9541 155.674H78.0742V159.554H81.9541V155.674Z" fill="white"/>
<path d="M97.4776 155.674H93.5977V159.554H97.4776V155.674Z" fill="white"/>
<path d="M101.356 155.674H97.4766V159.554H101.356V155.674Z" fill="white"/>
<path d="M105.235 155.674H101.355V159.554H105.235V155.674Z" fill="white"/>
<path d="M112.995 155.674H109.115V159.554H112.995V155.674Z" fill="white"/>
<path d="M116.876 155.674H112.996V159.554H116.876V155.674Z" fill="white"/>
<path d="M124.634 155.674H120.754V159.554H124.634V155.674Z" fill="white"/>
<path d="M132.396 155.674H128.516V159.554H132.396V155.674Z" fill="white"/>
<path d="M136.274 155.674H132.395V159.554H136.274V155.674Z" fill="white"/>
<path d="M140.155 155.674H136.275V159.554H140.155V155.674Z" fill="white"/>
<path d="M147.913 155.674H144.033V159.554H147.913V155.674Z" fill="white"/>
<path d="M151.794 155.674H147.914V159.554H151.794V155.674Z" fill="white"/>
<path d="M155.673 155.674H151.793V159.554H155.673V155.674Z" fill="white"/>
<path d="M171.192 155.674H167.312V159.554H171.192V155.674Z" fill="white"/>
<path d="M175.075 155.674H171.195V159.554H175.075V155.674Z" fill="white"/>
<path d="M182.835 155.674H178.955V159.554H182.835V155.674Z" fill="white"/>
<path d="M186.712 155.674H182.832V159.554H186.712V155.674Z" fill="white"/>
<path d="M47.0362 159.553H43.1562V163.433H47.0362V159.553Z" fill="white"/>
<path d="M50.917 159.553H47.0371V163.433H50.917V159.553Z" fill="white"/>
<path d="M54.7959 159.553H50.916V163.433H54.7959V159.553Z" fill="white"/>
<path d="M58.6768 159.553H54.7969V163.433H58.6768V159.553Z" fill="white"/>
<path d="M62.5557 159.553H58.6758V163.433H62.5557V159.553Z" fill="white"/>
<path d="M66.4346 159.553H62.5547V163.433H66.4346V159.553Z" fill="white"/>
<path d="M70.3155 159.553H66.4355V163.433H70.3155V159.553Z" fill="white"/>
<path d="M78.0752 159.553H74.1953V163.433H78.0752V159.553Z" fill="white"/>
<path d="M81.9541 159.553H78.0742V163.433H81.9541V159.553Z" fill="white"/>
<path d="M93.5967 159.557H89.7168V163.437H93.5967V159.557Z" fill="white"/>
<path d="M105.235 159.557H101.355V163.437H105.235V159.557Z" fill="white"/>
<path d="M116.876 159.557H112.996V163.437H116.876V159.557Z" fill="white"/>
<path d="M124.634 159.557H120.754V163.437H124.634V159.557Z" fill="white"/>
<path d="M128.515 159.553H124.635V163.433H128.515V159.553Z" fill="white"/>
<path d="M132.396 159.553H128.516V163.433H132.396V159.553Z" fill="white"/>
<path d="M140.155 159.553H136.275V163.433H140.155V159.553Z" fill="white"/>
<path d="M155.673 159.553H151.793V163.433H155.673V159.553Z" fill="white"/>
<path d="M163.433 159.553H159.553V163.433H163.433V159.553Z" fill="white"/>
<path d="M171.192 159.557H167.312V163.437H171.192V159.557Z" fill="white"/>
<path d="M175.075 159.557H171.195V163.437H175.075V159.557Z" fill="white"/>
<path d="M186.712 159.557H182.832V163.437H186.712V159.557Z" fill="white"/>
<path d="M47.0362 163.434H43.1562V167.314H47.0362V163.434Z" fill="white"/>
<path d="M70.3155 163.434H66.4355V167.314H70.3155V163.434Z" fill="white"/>
<path d="M78.0752 163.434H74.1953V167.314H78.0752V163.434Z" fill="white"/>
<path d="M81.9541 163.434H78.0742V167.314H81.9541V163.434Z" fill="white"/>
<path d="M85.835 163.434H81.9551V167.314H85.835V163.434Z" fill="white"/>
<path d="M101.356 163.434H97.4766V167.314H101.356V163.434Z" fill="white"/>
<path d="M105.235 163.434H101.355V167.314H105.235V163.434Z" fill="white"/>
<path d="M109.112 163.434H105.232V167.314H109.112V163.434Z" fill="white"/>
<path d="M116.876 163.434H112.996V167.314H116.876V163.434Z" fill="white"/>
<path d="M124.634 163.434H120.754V167.314H124.634V163.434Z" fill="white"/>
<path d="M136.274 163.434H132.395V167.314H136.274V163.434Z" fill="white"/>
<path d="M140.155 163.434H136.275V167.314H140.155V163.434Z" fill="white"/>
<path d="M147.913 163.434H144.033V167.314H147.913V163.434Z" fill="white"/>
<path d="M151.794 163.434H147.914V167.314H151.794V163.434Z" fill="white"/>
<path d="M155.673 163.434H151.793V167.314H155.673V163.434Z" fill="white"/>
<path d="M171.192 163.434H167.312V167.314H171.192V163.434Z" fill="white"/>
<path d="M178.956 163.434H175.076V167.314H178.956V163.434Z" fill="white"/>
<path d="M182.835 163.434H178.955V167.314H182.835V163.434Z" fill="white"/>
<path d="M186.712 163.434H182.832V167.314H186.712V163.434Z" fill="white"/>
<path d="M47.0362 167.312H43.1562V171.192H47.0362V167.312Z" fill="white"/>
<path d="M54.7959 167.312H50.916V171.192H54.7959V167.312Z" fill="white"/>
<path d="M58.6749 167.312H54.7949V171.192H58.6749V167.312Z" fill="white"/>
<path d="M62.5557 167.312H58.6758V171.192H62.5557V167.312Z" fill="white"/>
<path d="M70.3155 167.312H66.4355V171.192H70.3155V167.312Z" fill="white"/>
<path d="M85.835 167.312H81.9551V171.192H85.835V167.312Z" fill="white"/>
<path d="M97.4776 167.312H93.5977V171.192H97.4776V167.312Z" fill="white"/>
<path d="M120.755 167.312H116.875V171.192H120.755V167.312Z" fill="white"/>
<path d="M124.634 167.312H120.754V171.192H124.634V167.312Z" fill="white"/>
<path d="M136.274 167.312H132.395V171.192H136.274V167.312Z" fill="white"/>
<path d="M147.915 167.312H144.035V171.192H147.915V167.312Z" fill="white"/>
<path d="M155.673 167.312H151.793V171.192H155.673V167.312Z" fill="white"/>
<path d="M159.554 167.312H155.674V171.192H159.554V167.312Z" fill="white"/>
<path d="M163.437 167.312H159.557V171.192H163.437V167.312Z" fill="white"/>
<path d="M167.314 167.312H163.434V171.192H167.314V167.312Z" fill="white"/>
<path d="M171.192 167.312H167.312V171.192H171.192V167.312Z" fill="white"/>
<path d="M175.075 167.312H171.195V171.192H175.075V167.312Z" fill="white"/>
<path d="M178.956 167.312H175.076V171.192H178.956V167.312Z" fill="white"/>
<path d="M186.712 167.312H182.832V171.192H186.712V167.312Z" fill="white"/>
<path d="M47.0362 171.195H43.1562V175.075H47.0362V171.195Z" fill="white"/>
<path d="M54.7959 171.195H50.916V175.075H54.7959V171.195Z" fill="white"/>
<path d="M58.6749 171.195H54.7949V175.075H58.6749V171.195Z" fill="white"/>
<path d="M62.5557 171.195H58.6758V175.075H62.5557V171.195Z" fill="white"/>
<path d="M70.3155 171.195H66.4355V175.075H70.3155V171.195Z" fill="white"/>
<path d="M85.835 171.195H81.9551V175.075H85.835V171.195Z" fill="white"/>
<path d="M93.5967 171.195H89.7168V175.075H93.5967V171.195Z" fill="white"/>
<path d="M97.4776 171.195H93.5977V175.075H97.4776V171.195Z" fill="white"/>
<path d="M101.356 171.195H97.4766V175.075H101.356V171.195Z" fill="white"/>
<path d="M112.995 171.195H109.115V175.075H112.995V171.195Z" fill="white"/>
<path d="M120.755 171.195H116.875V175.075H120.755V171.195Z" fill="white"/>
<path d="M124.634 171.195H120.754V175.075H124.634V171.195Z" fill="white"/>
<path d="M128.515 171.195H124.635V175.075H128.515V171.195Z" fill="white"/>
<path d="M132.396 171.195H128.516V175.075H132.396V171.195Z" fill="white"/>
<path d="M136.274 171.195H132.395V175.075H136.274V171.195Z" fill="white"/>
<path d="M140.153 171.195H136.273V175.075H140.153V171.195Z" fill="white"/>
<path d="M155.673 171.195H151.793V175.075H155.673V171.195Z" fill="white"/>
<path d="M167.314 171.195H163.434V175.075H167.314V171.195Z" fill="white"/>
<path d="M171.192 171.195H167.312V175.075H171.192V171.195Z" fill="white"/>
<path d="M182.835 171.195H178.955V175.075H182.835V171.195Z" fill="white"/>
<path d="M47.0362 175.076H43.1562V178.956H47.0362V175.076Z" fill="white"/>
<path d="M54.7959 175.076H50.916V178.956H54.7959V175.076Z" fill="white"/>
<path d="M58.6749 175.076H54.7949V178.956H58.6749V175.076Z" fill="white"/>
<path d="M62.5557 175.076H58.6758V178.956H62.5557V175.076Z" fill="white"/>
<path d="M70.3155 175.076H66.4355V178.956H70.3155V175.076Z" fill="white"/>
<path d="M78.0752 175.076H74.1953V178.956H78.0752V175.076Z" fill="white"/>
<path d="M81.9581 175.076H78.0781V178.956H81.9581V175.076Z" fill="white"/>
<path d="M89.7139 175.076H85.834V178.956H89.7139V175.076Z" fill="white"/>
<path d="M93.5967 175.076H89.7168V178.956H93.5967V175.076Z" fill="white"/>
<path d="M101.356 175.076H97.4766V178.956H101.356V175.076Z" fill="white"/>
<path d="M105.235 175.076H101.355V178.956H105.235V175.076Z" fill="white"/>
<path d="M109.112 175.076H105.232V178.956H109.112V175.076Z" fill="white"/>
<path d="M116.876 175.076H112.996V178.956H116.876V175.076Z" fill="white"/>
<path d="M128.515 175.076H124.635V178.956H128.515V175.076Z" fill="white"/>
<path d="M132.396 175.076H128.516V178.956H132.396V175.076Z" fill="white"/>
<path d="M140.153 175.076H136.273V178.956H140.153V175.076Z" fill="white"/>
<path d="M151.794 175.076H147.914V178.956H151.794V175.076Z" fill="white"/>
<path d="M155.673 175.076H151.793V178.956H155.673V175.076Z" fill="white"/>
<path d="M159.554 175.076H155.674V178.956H159.554V175.076Z" fill="white"/>
<path d="M163.437 175.076H159.557V178.956H163.437V175.076Z" fill="white"/>
<path d="M167.314 175.076H163.434V178.956H167.314V175.076Z" fill="white"/>
<path d="M171.192 175.076H167.312V178.956H171.192V175.076Z" fill="white"/>
<path d="M175.075 175.076H171.195V178.956H175.075V175.076Z" fill="white"/>
<path d="M182.835 175.076H178.955V178.956H182.835V175.076Z" fill="white"/>
<path d="M186.712 175.076H182.832V178.956H186.712V175.076Z" fill="white"/>
<path d="M47.0362 178.955H43.1562V182.835H47.0362V178.955Z" fill="white"/>
<path d="M70.3155 178.955H66.4355V182.835H70.3155V178.955Z" fill="white"/>
<path d="M89.7139 178.955H85.834V182.835H89.7139V178.955Z" fill="white"/>
<path d="M97.4776 178.955H93.5977V182.835H97.4776V178.955Z" fill="white"/>
<path d="M105.235 178.955H101.355V182.835H105.235V178.955Z" fill="white"/>
<path d="M136.274 178.955H132.395V182.835H136.274V178.955Z" fill="white"/>
<path d="M151.794 178.955H147.914V182.835H151.794V178.955Z" fill="white"/>
<path d="M155.673 178.955H151.793V182.835H155.673V178.955Z" fill="white"/>
<path d="M159.554 178.955H155.674V182.835H159.554V178.955Z" fill="white"/>
<path d="M171.192 178.955H167.312V182.835H171.192V178.955Z" fill="white"/>
<path d="M175.075 178.955H171.195V182.835H175.075V178.955Z" fill="white"/>
<path d="M178.956 178.955H175.076V182.835H178.956V178.955Z" fill="white"/>
<path d="M182.835 178.955H178.955V182.835H182.835V178.955Z" fill="white"/>
<path d="M186.712 178.955H182.832V182.835H186.712V178.955Z" fill="white"/>
<path d="M47.0362 182.832H43.1562V186.712H47.0362V182.832Z" fill="white"/>
<path d="M50.917 182.832H47.0371V186.712H50.917V182.832Z" fill="white"/>
<path d="M54.7959 182.832H50.916V186.712H54.7959V182.832Z" fill="white"/>
<path d="M58.6749 182.832H54.7949V186.712H58.6749V182.832Z" fill="white"/>
<path d="M62.5557 182.832H58.6758V186.712H62.5557V182.832Z" fill="white"/>
<path d="M66.4385 182.832H62.5586V186.712H66.4385V182.832Z" fill="white"/>
<path d="M70.3155 182.832H66.4355V186.712H70.3155V182.832Z" fill="white"/>
<path d="M97.4776 182.832H93.5977V186.712H97.4776V182.832Z" fill="white"/>
<path d="M109.112 182.832H105.232V186.712H109.112V182.832Z" fill="white"/>
<path d="M124.634 182.832H120.754V186.712H124.634V182.832Z" fill="white"/>
<path d="M132.396 182.832H128.516V186.712H132.396V182.832Z" fill="white"/>
<path d="M136.274 182.832H132.395V186.712H136.274V182.832Z" fill="white"/>
<path d="M144.034 182.832H140.154V186.712H144.034V182.832Z" fill="white"/>
<path d="M151.794 182.832H147.914V186.712H151.794V182.832Z" fill="white"/>
<path d="M155.673 182.832H151.793V186.712H155.673V182.832Z" fill="white"/>
<path d="M171.192 182.832H167.312V186.712H171.192V182.832Z" fill="white"/>
<path d="M175.075 182.832H171.195V186.712H175.075V182.832Z" fill="white"/>
<path d="M186.712 182.832H182.832V186.712H186.712V182.832Z" fill="white"/>
<defs>
<filter id="filter0_b_967_3776" x="-9" y="-9" width="248" height="248" filterUnits="userSpaceOnUse" color-interpolation-filters="sRGB">
<feFlood flood-opacity="0" result="BackgroundImageFix"/>
<feGaussianBlur in="BackgroundImageFix" stdDeviation="5"/>
<feComposite in2="SourceAlpha" operator="in" result="effect1_backgroundBlur_967_3776"/>
<feBlend mode="normal" in="SourceGraphic" in2="effect1_backgroundBlur_967_3776" result="shape"/>
</filter>
<filter id="filter1_b_967_3776" x="-10" y="-10" width="250" height="250" filterUnits="userSpaceOnUse" color-interpolation-filters="sRGB">
<feFlood flood-opacity="0" result="BackgroundImageFix"/>
<feGaussianBlur in="BackgroundImageFix" stdDeviation="5"/>
<feComposite in2="SourceAlpha" operator="in" result="effect1_backgroundBlur_967_3776"/>
<feBlend mode="normal" in="SourceGraphic" in2="effect1_backgroundBlur_967_3776" result="shape"/>
</filter>
</defs>
</svg>
