<svg width="40" height="40" viewBox="0 0 40 40" fill="none" xmlns="http://www.w3.org/2000/svg">
<path d="M20.5457 11.4929C18.9657 11.4929 16.5199 9.69648 13.9443 9.76142C10.5462 9.8047 7.42944 11.731 5.67628 14.7828C2.14832 20.908 4.76724 29.9552 8.20862 34.9333C9.89685 37.3574 11.8881 40.0846 14.5287 39.998C17.061 39.8898 18.0133 38.3531 21.0868 38.3531C24.1386 38.3531 25.0043 39.998 27.6882 39.9331C30.4153 39.8898 32.1468 37.4657 33.8134 35.0199C35.7397 32.2062 36.5405 29.479 36.5838 29.3275C36.5189 29.3059 31.2811 27.293 31.2161 21.2327C31.1728 16.168 35.3501 13.7439 35.5449 13.6357C33.1641 10.151 29.5063 9.76142 28.2293 9.67484C24.8961 9.41511 22.104 11.4929 20.5457 11.4929ZM26.1731 6.38496C27.5799 4.69673 28.5106 2.33755 28.2509 0C26.238 0.0865757 23.8139 1.34192 22.3638 3.03015C21.0651 4.52358 19.9396 6.92606 20.2427 9.22032C22.472 9.39347 24.7662 8.07319 26.1731 6.38496Z" fill="#B5B5B5"/>
</svg>
