<svg width="24" height="24" viewBox="0 0 24 24" fill="none" xmlns="http://www.w3.org/2000/svg">
<path d="M9.49896 2.99622V4.79697C9.49896 5.1281 9.72306 5.39722 9.99917 5.39722H14.0008C14.277 5.39722 14.501 5.1281 14.501 4.79697V2.99622" stroke="white" stroke-width="1.5" stroke-linecap="round" stroke-linejoin="round"/>
<path fill-rule="evenodd" clip-rule="evenodd" d="M7.99833 2.99622H16.0017C17.1071 2.99622 18.0025 3.89159 18.0025 4.99705V19.0029C18.0025 20.1083 17.1071 21.0037 16.0017 21.0037H7.99833C6.89287 21.0037 5.9975 20.1083 5.9975 19.0029V4.99705C5.9975 3.89159 6.89287 2.99622 7.99833 2.99622Z" stroke="white" stroke-width="1.5" stroke-linecap="round" stroke-linejoin="round"/>
<path d="M12.0001 18.3741C11.931 18.3741 11.875 18.4301 11.876 18.4991C11.876 18.5681 11.932 18.6242 12.0011 18.6242C12.0701 18.6242 12.1261 18.5681 12.1261 18.4991C12.1261 18.4301 12.0701 18.3741 12.0001 18.3741" stroke="white" stroke-width="1.5" stroke-linecap="round" stroke-linejoin="round"/>
</svg>
