<svg width="current" height="current" viewBox="0 0 17 24" fill="current" xmlns="http://www.w3.org/2000/svg">
<path d="M13 2.375C13.3978 2.375 13.7794 2.51987 14.0607 2.77773C14.342 3.03559 14.5 3.38533 14.5 3.75V20.25C14.5 20.6147 14.342 20.9644 14.0607 21.2223C13.7794 21.4801 13.3978 21.625 13 21.625H4C3.60218 21.625 3.22064 21.4801 2.93934 21.2223C2.65804 20.9644 2.5 20.6147 2.5 20.25V3.75C2.5 3.38533 2.65804 3.03559 2.93934 2.77773C3.22064 2.51987 3.60218 2.375 4 2.375H13ZM4 1C3.20435 1 2.44129 1.28973 1.87868 1.80546C1.31607 2.32118 1 3.02065 1 3.75V20.25C1 20.9793 1.31607 21.6788 1.87868 22.1945C2.44129 22.7103 3.20435 23 4 23H13C13.7956 23 14.5587 22.7103 15.1213 22.1945C15.6839 21.6788 16 20.9793 16 20.25V3.75C16 3.02065 15.6839 2.32118 15.1213 1.80546C14.5587 1.28973 13.7956 1 13 1H4Z" fill="current" stroke="#030305" stroke-width="0.4"/>
<path d="M8 19.5C8.26522 19.5 8.51957 19.3946 8.70711 19.2071C8.89464 19.0196 9 18.7652 9 18.5C9 18.2348 8.89464 17.9804 8.70711 17.7929C8.51957 17.6054 8.26522 17.5 8 17.5C7.73478 17.5 7.48043 17.6054 7.29289 17.7929C7.10536 17.9804 7 18.2348 7 18.5C7 18.7652 7.10536 19.0196 7.29289 19.2071C7.48043 19.3946 7.73478 19.5 8 19.5Z" fill="current"/>
</svg>
