<svg width="24" height="24" viewBox="0 0 24 24" fill="none" xmlns="http://www.w3.org/2000/svg">
<path d="M5 6V3" stroke="white" stroke-width="1.5" stroke-linecap="round" stroke-linejoin="round"/>
<path d="M5 21V10" stroke="white" stroke-width="1.5" stroke-linecap="round" stroke-linejoin="round"/>
<path d="M12 14V3" stroke="white" stroke-width="1.5" stroke-linecap="round" stroke-linejoin="round"/>
<path d="M12 21V18" stroke="white" stroke-width="1.5" stroke-linecap="round" stroke-linejoin="round"/>
<path d="M19 6V3" stroke="white" stroke-width="1.5" stroke-linecap="round" stroke-linejoin="round"/>
<path d="M19 21V10" stroke="white" stroke-width="1.5" stroke-linecap="round" stroke-linejoin="round"/>
<path d="M6.41422 6.58579C7.19527 7.36684 7.19527 8.63317 6.41422 9.41422C5.63317 10.1953 4.36684 10.1953 3.58579 9.41422C2.80474 8.63317 2.80474 7.36684 3.58579 6.58579C4.36684 5.80474 5.63317 5.80474 6.41422 6.58579" stroke="white" stroke-width="1.5" stroke-linecap="round" stroke-linejoin="round"/>
<path d="M13.4142 14.5858C14.1953 15.3668 14.1953 16.6332 13.4142 17.4142C12.6332 18.1953 11.3668 18.1953 10.5858 17.4142C9.80474 16.6332 9.80474 15.3668 10.5858 14.5858C11.3668 13.8047 12.6332 13.8047 13.4142 14.5858" stroke="white" stroke-width="1.5" stroke-linecap="round" stroke-linejoin="round"/>
<path d="M20.4142 6.58579C21.1953 7.36684 21.1953 8.63317 20.4142 9.41422C19.6332 10.1953 18.3668 10.1953 17.5858 9.41422C16.8047 8.63317 16.8047 7.36684 17.5858 6.58579C18.3668 5.80474 19.6332 5.80474 20.4142 6.58579" stroke="white" stroke-width="1.5" stroke-linecap="round" stroke-linejoin="round"/>
</svg>
