<svg xmlns="http://www.w3.org/2000/svg" width="48" height="47" fill="none"><path stroke="#fff" stroke-linecap="round" stroke-linejoin="round" stroke-width="1.5" d="M32.175 12.459v5.166a7.833 7.833 0 0 1-7.834 7.833v0a7.833 7.833 0 0 1-7.833-7.833v-5.166"/><path stroke="#fff" stroke-linecap="round" stroke-linejoin="round" stroke-width="1.5" d="m12.7 10.567 9.028 4.486a5.875 5.875 0 0 0 5.23 0l9.027-4.486a1.958 1.958 0 0 0 0-3.508l-9.028-4.486a5.875 5.875 0 0 0-5.23 0L12.7 7.059a1.958 1.958 0 0 0 0 3.508v0Z" clip-rule="evenodd"/><path stroke="#fff" stroke-linecap="round" stroke-linejoin="round" stroke-width="1.5" d="M37.071 8.813v5.874M18.467 30.354l-7.027 1.404a5.875 5.875 0 0 0-4.723 5.761v3.605M36.092 32.803v4.896M38.54 35.25h-4.895"/><circle cx="36.091" cy="35.249" r="7.833" stroke="#fff" stroke-linecap="round" stroke-linejoin="round" stroke-width="1.5"/></svg>