<svg xmlns="http://www.w3.org/2000/svg" width="48" height="47" fill="none"><path stroke="#fff" stroke-linecap="round" stroke-linejoin="round" stroke-width="1.5" d="m34.577 29.684-.443.45-.443-.45a4.283 4.283 0 0 0-6.122 0v0a4.444 4.444 0 0 0 0 6.217l4.142 4.205a3.39 3.39 0 0 0 4.846 0l4.142-4.205a4.444 4.444 0 0 0 0-6.217v0a4.283 4.283 0 0 0-6.122 0Z" clip-rule="evenodd"/><path stroke="#fff" stroke-linecap="round" stroke-linejoin="round" stroke-width="1.5" d="M20.425 29.375H14.55a7.833 7.833 0 0 0-7.833 7.833v1.959"/><circle cx="22.384" cy="13.708" r="7.833" stroke="#fff" stroke-linecap="round" stroke-linejoin="round" stroke-width="1.5"/></svg>